<svg width="546" height="531" viewBox="0 0 546 531" fill="none" xmlns="http://www.w3.org/2000/svg">
<path fill-rule="evenodd" clip-rule="evenodd" d="M7.15492 7.23717C2.01288 12.2925 -0.065906 15.0779 0.182615 16.5841C0.476446 18.3586 2.19 17.1128 10.1138 9.36426C18.3233 1.33794 19.3201 0.00267046 17.0861 0.0186937C15.3012 0.0307112 12.1761 2.30334 7.15492 7.23717ZM17.8756 17.6109C4.11775 31.017 -0.0974861 35.7359 0.177122 37.4223C0.470954 39.2289 4.27703 35.9936 20.8799 19.8181C37.6983 3.43565 40.7656 0.00133517 38.5798 0.00801153C36.5916 0.0120173 31.4523 4.38236 17.8756 17.6109ZM28.6019 28.0273C6.22812 49.8016 -0.107097 56.5434 0.174376 58.2793C0.469581 60.0926 6.3819 54.8222 31.6198 30.2559C57.028 5.52402 62.2181 0.0013352 60.0459 0.00534102C58.0028 0.00801156 50.7518 6.46939 28.6019 28.0273ZM39.3267 38.4518C8.33986 68.5996 -0.109843 77.3803 0.174376 79.1389C0.468208 80.9548 8.49227 73.6415 42.3529 40.6911C76.3467 7.61238 83.6718 0.0013353 81.5066 0.00400584C79.436 0.00667638 70.0554 8.55642 39.3267 38.4518ZM50.0543 48.8789C10.4516 87.4029 -0.11259 98.2292 0.173003 100.001C0.466834 101.818 10.6026 92.4555 53.0846 51.1249C95.6613 9.69941 105.124 0.00133524 102.964 0.00267051C100.877 0.00534105 89.3617 10.6434 50.0543 48.8789ZM60.7805 59.3087C12.5633 106.207 -0.113963 119.084 0.173003 120.863C0.466834 122.682 12.7144 111.269 63.8135 61.5573C114.974 11.7864 126.578 0.00133524 124.42 0.00267051C122.324 0.00400578 108.668 12.7291 60.7805 59.3087ZM71.5067 69.7386C14.6765 125.013 -0.115336 139.94 0.173003 141.727C0.466834 143.546 14.8261 130.081 74.5425 71.9898C134.285 13.8735 148.032 0.00133524 145.876 0.00267051C143.773 0.00400578 127.976 14.8162 71.5067 69.7386ZM82.2343 80.1684C16.7882 143.819 -0.116709 160.799 0.173003 162.589C0.466834 164.408 16.9379 148.891 85.2701 82.4223C153.597 15.9605 169.486 0.00133524 167.331 0.00267051C165.222 0.00267051 147.284 16.9032 82.2343 80.1684ZM93.0566 90.506C20.2455 161.319 0.00137294 181.566 0.00137294 183.569C0.00137294 185.651 6.1375 180.18 32.7732 154.352C50.7985 136.875 65.696 122.444 65.8772 122.285C66.0598 122.127 65.074 124.239 63.6858 126.979C62.2991 129.72 60.5567 134.888 59.8139 138.462L58.4628 144.962L29.1401 173.541C6.55903 195.549 -0.100232 202.627 0.177122 204.322C0.466834 206.096 6.26245 200.958 30.0367 177.854L59.5351 149.186L60.4592 153.614C60.9672 156.049 61.4505 159.078 61.5315 160.342C61.6428 162.051 53.734 170.393 30.7479 192.812C6.8762 216.095 -0.101605 223.484 0.177122 225.185C0.466834 226.963 6.79519 221.309 32.6935 196.141C59.4569 170.132 65.0136 165.189 65.8223 166.682C66.3578 167.667 67.9217 169.658 69.3002 171.106L71.8046 173.737L35.9106 208.66C8.21079 235.611 0.0151034 244.172 0.00961126 246.16C0.00274604 248.252 7.00389 241.935 37.1751 212.629L74.3489 176.52L78.2648 179.278C80.4177 180.794 82.3304 182.442 82.5144 182.94C82.6984 183.437 64.2076 201.993 41.4247 224.176C9.53715 255.222 0.00137294 265.094 0.00137294 267.056C0.00137294 269.105 8.51149 261.342 43.4911 227.385C70.0348 201.618 87.6962 185.236 88.8125 185.348C89.819 185.446 92.9358 185.917 95.7382 186.391L100.835 187.252L50.4236 236.282C11.1313 274.497 0.0109843 285.88 0.00686521 287.894C0.00137304 289.98 10.2278 280.538 53.1079 238.864C102.134 191.218 106.555 187.194 110.648 186.499C127.473 183.64 146.679 165.026 145.676 152.551C145.416 149.327 149.501 145.157 222.055 74.5736C283.771 14.5331 298.191 0.0013353 296.046 0.00400584C293.951 0.00801166 277.21 15.7335 217.756 73.5467C151.482 137.995 141.734 147.088 138.913 147.107C137.142 147.118 133.575 148.525 130.976 150.238C127.222 152.711 118.323 154.895 120.232 152.875C120.478 152.615 155.909 118.111 198.968 76.2013C262.003 14.8482 276.737 0.0013353 274.592 0.00400584C272.495 0.00801166 255.128 16.3437 193.193 76.5698C116.834 150.82 114.368 153.101 111.503 152.13C108.54 151.125 104.395 147.483 105.22 146.61C105.462 146.352 139.442 113.26 180.731 73.0714C243.785 11.697 255.346 0.00133517 252.958 0.00133517C251.396 0.00133517 249.939 0.352512 249.721 0.782469C249.504 1.21376 216.197 33.6809 175.706 72.9339L102.084 144.303L100.825 139.759C98.6394 131.863 97.7263 132.886 167.856 64.6712C221.425 12.5662 233.826 0.0013352 231.682 0.00534102C229.6 0.0106821 216.875 11.8198 173.333 54.1559C119.64 106.36 117.583 108.226 115.918 106.226C114.968 105.085 112.635 103.837 110.732 103.453C107.274 102.754 107.281 102.746 159.832 51.6376C202.117 10.5139 211.943 0.453992 210.098 0.169579C208.299 -0.106822 196.526 10.7783 155.456 50.6882C126.665 78.6662 102.474 101.881 101.703 102.275C100.93 102.67 98.0078 103.282 95.2082 103.636C92.4099 103.988 87.5823 105.517 84.4819 107.031C81.3802 108.546 79.0845 109.518 79.3797 109.189C79.6749 108.861 105.006 84.1581 135.672 54.2961C180.73 10.4191 190.917 0.00133517 188.77 0.00133517C186.678 0.00267045 166.315 19.2573 93.0566 90.506ZM157.322 153.186C31.5772 275.476 -0.118082 306.828 0.173003 308.633C0.465461 310.453 31.7255 280.561 160.363 155.447C288.762 30.5657 319.662 0.00133517 317.512 0.00133517C315.385 0.00267045 282.439 31.5084 157.322 153.186ZM168.048 163.619C33.6904 294.283 -0.119455 327.69 0.173003 329.497C0.465461 331.317 33.8386 299.369 171.091 165.879C308.071 32.6527 341.116 0.00133517 338.966 0.00133517C336.839 0.00133517 301.747 33.5941 168.048 163.619ZM249.938 104.911C189.926 163.308 140.379 210.704 138.178 211.821C135.956 212.948 133.053 215.737 131.55 218.187C130.079 220.585 99.8792 250.761 64.4383 285.245C14.1753 334.15 0.00137294 348.506 0.00137294 350.507C0.00137294 352.569 11.5912 341.816 59.0504 295.72C91.527 264.177 118.395 238.132 118.756 237.847C119.598 237.178 119.633 237.119 105.921 258.71L94.3253 276.965L47.1626 322.893C10.7358 358.365 0 369.399 0 371.37C0 373.423 8.14626 366.014 41.8888 333.266C64.9284 310.907 84.0508 292.378 84.3845 292.092C84.9666 291.591 76.8588 304.538 64.7884 323.387C60.1599 330.613 53.642 337.563 29.5644 360.941C7.01625 382.837 0.0192226 390.234 0.0109844 392.185C0.00274611 394.276 4.51182 390.375 24.7326 370.801C38.334 357.632 49.722 346.623 50.0378 346.337C58.5356 338.626 22.6181 388.425 12.5084 398.37C3.44634 407.286 0.00549212 411.368 0.0164765 413.192C0.0260878 414.576 0.403675 415.239 0.856779 414.665C5.90546 408.27 16.0879 400.337 15.4852 403.268C15.098 405.151 15.4769 407.975 16.4079 410.141L17.9869 413.817L9.02364 422.587C2.8779 428.598 0.0508025 432.141 0.0302069 433.85C0.00549211 435.959 1.58312 434.835 10.2882 426.547C15.9479 421.159 21.1366 416.926 21.8204 417.14C22.5042 417.354 25.5935 417.824 28.687 418.183L34.311 418.837L17.1726 435.528C4.4514 447.918 0.030207 452.877 0.0178496 454.772C0.00411914 456.87 3.58364 453.852 20.1137 437.827L40.226 418.33L48.1828 418.323C52.5573 418.319 55.9364 418.526 55.6906 418.781C55.4448 419.037 42.773 431.421 27.5309 446.3C6.23499 467.087 -0.0988592 473.861 0.177122 475.552C0.466834 477.323 6.49998 471.957 31.109 448.037L61.6798 418.323L69.6366 418.319C74.0111 418.318 77.3902 418.527 77.1444 418.785C76.8986 419.043 59.3992 436.116 38.2557 456.724C8.34947 485.875 -0.105724 494.686 0.175749 496.412C0.466835 498.196 8.60898 490.782 41.8352 458.476L83.1336 418.322L91.0904 418.319C95.4649 418.318 98.844 418.527 98.5982 418.787C98.3524 419.046 76.0254 440.809 48.9819 467.151C10.464 504.671 -0.10847 515.528 0.174376 517.273C0.466834 519.065 10.7193 509.6 52.5628 468.911L104.587 418.32L112.544 418.318C116.919 418.316 120.298 418.529 120.052 418.788C119.806 419.047 93.7912 444.397 62.24 475.119C15.9396 520.204 5.38782 530.979 7.53251 530.975C9.6113 530.971 22.8186 518.683 68.1166 474.608L126.041 418.247L133.015 418.932C136.848 419.309 140.086 419.694 140.207 419.789C140.329 419.884 114.866 444.824 83.6224 475.21C37.9248 519.656 27.2673 530.527 29.114 530.81C30.9182 531.088 43.6545 519.262 88.656 475.522L145.901 419.881L154.167 419.572C158.713 419.402 162.21 419.497 161.937 419.783C161.663 420.068 135.868 445.205 104.612 475.641C58.7401 520.308 48.2954 530.979 50.4401 530.975C52.5189 530.971 65.6301 518.785 110.487 475.166L167.876 419.363L175.832 419.361C180.208 419.361 183.587 419.572 183.341 419.831C183.095 420.09 157.322 445.205 126.066 475.641C80.1939 520.308 69.7492 530.979 71.8939 530.975C73.9727 530.971 87.0839 518.785 131.941 475.166L189.33 419.363L197.286 419.361C201.662 419.361 205.041 419.572 204.795 419.831C204.549 420.09 178.776 445.205 147.52 475.641C101.648 520.308 91.203 530.979 93.3477 530.975C95.4265 530.971 108.538 518.785 153.395 475.166L210.784 419.363L218.739 419.361C223.115 419.361 226.494 419.572 226.249 419.831C226.003 420.09 200.229 445.205 168.974 475.641C123.102 520.308 112.657 530.979 114.801 530.975C116.88 530.971 129.991 518.785 174.849 475.166L232.238 419.363L240.193 419.361C244.569 419.361 247.948 419.572 247.702 419.831C247.457 420.09 221.683 445.205 190.427 475.641C144.555 520.308 134.111 530.979 136.255 530.975C138.334 530.971 151.445 518.785 196.303 475.166L253.692 419.363L261.647 419.361C266.023 419.361 269.402 419.572 269.156 419.831C268.91 420.09 243.137 445.205 211.881 475.641C166.009 520.308 155.564 530.979 157.709 530.975C159.788 530.971 172.899 518.785 217.756 475.166L275.145 419.363L283.101 419.361C287.477 419.361 290.856 419.572 290.61 419.831C290.364 420.09 264.591 445.205 233.335 475.641C187.463 520.308 177.018 530.979 179.163 530.975C181.242 530.971 194.353 518.785 239.21 475.166L296.599 419.363L304.555 419.361C308.93 419.361 312.31 419.572 312.064 419.831C311.818 420.09 286.045 445.205 254.789 475.641C208.917 520.308 198.472 530.979 200.617 530.975C202.695 530.971 215.807 518.785 260.664 475.166L318.053 419.363L326.008 419.361C330.384 419.361 333.763 419.572 333.518 419.831C333.272 420.09 307.498 445.205 276.242 475.641C230.581 520.104 219.931 530.98 222.048 530.98C224.097 530.98 237.363 518.657 281.759 475.507C346.317 412.767 339.982 418.124 349.155 418.529L356.136 418.837L298.747 474.648C252.579 519.543 241.805 530.527 243.652 530.81C245.457 531.088 258.298 519.159 303.729 475L361.511 418.837L369.777 418.529C374.324 418.359 377.82 418.454 377.547 418.74C377.274 419.026 351.237 444.397 319.686 475.119C273.385 520.204 262.833 530.979 264.978 530.975C267.057 530.971 280.275 518.681 325.562 474.645L383.487 418.32L391.443 418.318C395.818 418.316 399.197 418.529 398.951 418.788C398.706 419.047 372.69 444.397 341.139 475.119C294.839 520.204 284.287 530.979 286.432 530.975C288.511 530.971 301.729 518.681 347.016 474.645L404.94 418.32L412.897 418.318C417.272 418.316 420.651 418.529 420.405 418.788C420.159 419.047 394.144 444.397 362.593 475.119C316.293 520.204 305.741 530.979 307.886 530.975C309.964 530.971 323.183 518.681 368.47 474.645L426.394 418.32L434.351 418.318C438.726 418.316 442.105 418.529 441.859 418.788C441.613 419.047 415.598 444.397 384.047 475.119C337.733 520.218 327.193 530.979 329.339 530.976C331.426 530.972 348.257 515.161 407.623 457.433L483.248 383.895L491.203 383.893C495.579 383.892 498.958 384.104 498.712 384.365C498.467 384.625 464.484 417.72 423.195 457.909C362.735 516.759 348.643 530.979 350.788 530.976C352.882 530.972 369.629 515.241 429.077 457.433C488.743 399.413 505.267 383.893 507.383 383.886C516.988 383.861 523.468 378.476 523.481 370.511C523.489 365.717 523.676 365.453 534.719 354.683C542.665 346.933 545.957 342.995 545.975 341.222C545.996 339.12 544.085 340.553 534.153 350.088C520.082 363.6 521.571 362.883 517.03 358.325L513.355 354.639L528.873 339.306C537.408 330.872 544.753 323.802 545.195 323.592C545.638 323.384 546 321.994 546 320.503C546 318.163 543.648 320.066 528.803 334.412C508.7 353.839 510.909 352.516 506.301 347.892L502.624 344.204L523.508 323.658C534.994 312.357 544.753 302.94 545.195 302.73C545.638 302.52 546 301.122 546 299.623C546 297.29 542.746 300.049 523.446 318.748C497.305 344.075 500.219 342.121 495.574 337.459L491.895 333.77L518.144 308.01C532.58 293.841 544.753 282.077 545.195 281.868C545.638 281.658 546 280.255 546 278.75C546 276.42 541.848 280.041 518.087 303.091C485.903 334.312 489.514 331.712 484.846 327.027L481.168 323.336L512.779 292.362C530.165 275.326 544.753 261.215 545.195 261.004C545.638 260.795 546 259.387 546 257.878C546 255.552 540.951 260.037 512.727 287.436C474.5 324.547 478.803 321.296 474.119 316.594L470.44 312.903L507.415 276.714C527.752 256.81 544.753 240.352 545.195 240.142C545.638 239.931 546 238.522 546 237.009C546 234.685 540.055 240.035 507.367 271.782C463.104 314.772 468.085 310.873 463.41 306.182L459.751 302.51L464.364 297.939C467.672 294.662 470.145 293.187 473.107 292.726C478.834 291.836 482.559 288.359 484.102 282.463C485.283 277.95 487.982 275.007 515.789 247.908C539.232 225.06 546.102 217.781 545.824 216.082C545.533 214.306 539.445 219.726 514.49 243.977L483.517 274.075L479.705 269.973L475.895 265.871L510.143 232.335C528.98 213.889 544.753 198.624 545.195 198.413C545.638 198.204 546 196.795 546 195.285C546 192.959 540.502 197.877 510.047 227.45C468.797 267.506 473.447 263.927 468.754 259.219L465.076 255.528L504.733 216.731C526.545 195.393 544.753 177.761 545.195 177.551C545.638 177.34 546 175.93 546 174.417C546 172.092 539.607 177.877 504.687 211.798C457.389 257.739 462.73 253.507 458.028 248.788L454.348 245.096L499.369 201.083C524.132 176.877 544.753 156.898 545.195 156.687C545.638 156.476 546 155.065 546 153.55C546 151.226 538.711 157.877 499.325 196.146C445.982 247.975 452.011 243.082 447.3 238.355L443.62 234.663L494.006 185.436C521.718 158.361 544.753 136.035 545.195 135.824C545.638 135.613 546 134.2 546 132.683C546 130.36 537.815 137.879 493.962 180.495C434.542 238.239 441.295 232.668 436.541 227.868L432.831 224.12L435.513 222.052C436.987 220.913 439.884 218.938 441.949 217.663C444.013 216.387 446.443 213.825 447.35 211.969C448.254 210.113 470.864 187.309 497.592 161.294C535.646 124.254 546.109 113.51 545.826 111.768C545.535 109.976 536.033 118.716 497.192 156.506C456.872 195.736 448.745 203.186 447.848 201.741C447.259 200.79 445.723 198.754 444.436 197.217L442.096 194.424L494.043 143.894C534.553 104.488 545.989 92.796 545.993 90.7824C545.999 88.6954 535.778 98.1251 492.85 139.811C463.617 168.199 439.571 191.533 439.413 191.666C439.257 191.798 437.361 190.148 435.2 187.996L431.273 184.085L488.63 128.293C533.471 84.6776 545.99 71.9377 545.995 69.9161C545.999 67.8304 534.701 78.311 487.525 124.162C455.364 155.419 428.815 180.992 428.527 180.992C427.263 180.992 420.411 174.982 420.704 174.131C420.884 173.613 449.15 145.83 483.516 112.392C532.246 64.9783 546 51.0314 546 49.0298C546 46.9695 533.412 58.6985 482.165 108.512C409.473 179.171 417.703 172.163 412.973 167.419L409.293 163.726L476.843 97.8086C513.994 61.5533 544.753 31.7167 545.195 31.5057C545.638 31.2948 546 29.8794 546 28.3598C546 26.0378 534.953 36.3354 476.801 92.8628C398.063 169.405 406.979 161.735 402.247 156.987L398.567 153.294L471.478 82.1606C511.581 43.0371 544.753 10.8531 545.195 10.6421C545.638 10.4311 546 9.01442 546 7.49488C546 5.17284 534.059 16.3384 471.44 77.2134C430.431 117.079 396.5 149.821 396.039 149.972C395.02 150.306 387.734 143.15 388.387 142.459C388.642 142.19 421.667 110.028 461.775 70.9857C523.041 11.3498 534.245 0.00133517 531.858 0.00133517C530.294 -9.68429e-08 528.838 0.352512 528.62 0.782469C528.403 1.21376 496.034 32.7689 456.689 70.9069L385.152 140.249L381.356 136.67C376.473 132.068 368.791 140.54 445.683 65.7301C499.91 12.9735 512.722 0.00133517 510.602 0.00133517C508.538 0.00133517 493.441 14.1098 441.678 64.4175L375.397 128.834L369.1 128.476C365.472 128.269 361.729 128.661 360.273 129.4C357.016 131.049 349.57 138.454 425.301 64.7273C478.924 12.5248 491.273 0.00133524 489.127 0.00267051C487.025 0.00534105 460.296 25.4543 362.033 121.012C293.596 187.564 236.877 241.991 235.993 241.959C235.107 241.928 232.344 241.097 229.851 240.111L225.319 238.321L347.587 119.421C445.846 23.8693 469.401 0.452657 467.54 0.168244C465.7 -0.113498 440.292 24.0509 343.589 118.047C276.689 183.076 221.777 236.434 221.562 236.619C220.84 237.247 210.236 233.188 210.511 232.389C210.662 231.954 264.36 179.489 329.842 115.799C425.266 22.9867 448.371 0.00133517 446.239 0.00133517C444.141 0.00133517 418.546 24.338 324.741 115.533C255.492 182.856 205.236 230.935 204.305 230.755C203.427 230.585 200.783 229.645 198.429 228.669L194.15 226.892L310.548 113.708C404.093 22.745 426.492 0.452657 424.633 0.168244C422.794 -0.112163 398.548 22.9199 306.581 112.311C242.926 174.183 190.655 224.972 190.425 225.173C189.597 225.899 179.038 221.974 179.354 221.06C179.531 220.544 230.597 170.596 292.833 110.062C387.613 17.8753 405.527 0 403.142 0C401.575 0 400.114 0.352512 399.897 0.782469C399.68 1.21376 348.806 50.7657 286.844 110.9L174.184 220.233L168.886 218.209C165.971 217.095 163.647 215.837 163.723 215.413C163.799 214.989 213.512 166.348 274.198 107.321C362.858 21.0853 384.011 0.0013353 381.866 0.00400584C379.755 0.00534111 356.173 22.4072 269.245 106.979C149.144 223.83 159.068 215.107 150.278 211.554L146.932 210.201L255.008 105.101C341.882 20.6193 362.56 0.0013353 360.413 0.00400584C358.301 0.00534111 335.18 21.9612 249.938 104.911ZM87.2679 126.453C86.4687 129.447 85.8165 133.57 85.8165 135.617C85.8165 140.941 74.7182 152.039 73.6267 147.808C71.968 141.383 74.7718 134.416 81.7839 127.536C85.4431 123.947 88.4995 121.01 88.5777 121.01C88.656 121.01 88.067 123.459 87.2679 126.453ZM89.8986 148.896L92.3728 153.73L86.536 159.406L80.6992 165.082L77.7444 160.178L74.7883 155.275L80.5331 149.617C87.3997 142.857 86.8299 142.901 89.8986 148.896ZM99.2394 167.814C94.7715 172.253 94.5573 172.338 90.857 171.151C83.9588 168.937 83.746 167.444 89.5169 161.747L94.6411 156.687L99.2339 159.972L103.825 163.258L99.2394 167.814ZM362.176 183.453C347.955 197.282 347.762 197.423 345.287 195.737C343.91 194.8 341.087 194.032 339.012 194.032C335.252 194.032 335.285 193.991 351.827 177.878L368.412 161.724L372.486 165.594L376.561 169.463L362.176 183.453ZM117.125 166.91C120.773 166.91 121.271 167.151 120.207 168.398C118.322 170.606 109.714 173.169 104.18 173.169H99.3259L103.437 169.073C106.982 165.544 107.91 165.112 110.161 165.944C111.598 166.475 114.731 166.91 117.125 166.91ZM344.544 221.468L301.799 263.039L295.217 261.717C287.587 260.184 287.694 257.671 295.39 257.659C301.207 257.65 301.726 257.272 327.561 234.243C351.334 213.051 353.401 210.369 351.021 203.805C349.975 200.916 350.44 200.319 364.537 186.484L379.137 172.155L383.213 176.026L387.291 179.898L344.544 221.468ZM396.289 192.023C395.383 192.996 393.205 194.072 391.45 194.413C387.464 195.189 383.259 199.182 382.336 203.071C381.856 205.092 371.786 215.646 350.539 236.392L319.445 266.757L314.458 265.795C311.716 265.266 308.771 264.608 307.916 264.332C306.904 264.006 320.925 249.664 348.117 223.213L389.874 182.596L393.904 186.424C397.582 189.916 397.791 190.407 396.289 192.023ZM285.276 203.624C284.645 205.763 284.705 208.441 285.439 211.097L286.586 215.238L269.56 231.795L252.533 248.354L248.821 246.905C246.78 246.108 244.171 245.132 243.022 244.734C241.353 244.158 283.83 200.292 286.056 200.292C286.168 200.292 285.817 201.792 285.276 203.624ZM385.843 215.831L389.271 219.719L363.142 245.113L337.012 270.509L330.388 269.141L323.765 267.774L352.545 239.771C368.375 224.368 381.571 211.806 381.871 211.854C382.17 211.904 383.958 213.693 385.843 215.831ZM297.672 219.759L301.962 220.316L285.186 237.027L268.409 253.738L262.928 251.967C259.913 250.994 257.447 249.888 257.447 249.51C257.447 247.145 289.278 218.002 291.236 218.575C292.416 218.919 295.313 219.452 297.672 219.759ZM377.305 252.197L354.45 274.424L348.587 273.16C345.363 272.466 342.506 271.729 342.238 271.523C341.97 271.318 353.06 260.143 366.882 246.691L392.016 222.233L396.088 226.102L400.162 229.97L377.305 252.197ZM391.442 259.319L372.004 278.243L365.577 276.668L359.15 275.094L380.945 253.879L402.741 232.664L406.811 236.529L410.882 240.394L391.442 259.319ZM402.043 269.873C391.283 280.348 382.131 288.578 381.707 288.158C381.283 287.74 379.76 285.753 378.324 283.747L375.713 280.095L394.589 261.594L413.467 243.094L417.537 246.96L421.608 250.825L402.043 269.873ZM285.316 253.998C289.908 258.04 284.791 259.875 277 256.981L272.347 255.253L276.956 250.687L281.564 246.119L282.362 249.108C282.8 250.753 284.129 252.952 285.316 253.998ZM181.191 250.699C184.391 252.007 184.464 252.162 182.639 253.768C180.845 255.347 180.596 255.256 178.906 252.39C176.816 248.849 176.763 248.888 181.191 250.699ZM195.119 255.671C200.611 257.271 200.617 257.216 194.27 263.295L189.021 268.324L186.091 263.462L183.161 258.601L185.659 256.017C187.032 254.595 188.732 253.647 189.436 253.91C190.14 254.173 192.697 254.965 195.119 255.671ZM429.408 264.133C426.845 266.735 425.782 267.056 419.687 267.056C415.925 267.056 411.791 267.578 410.503 268.216C409.213 268.854 411.763 265.807 416.168 261.443L424.178 253.512L428.231 257.362L432.286 261.211L429.408 264.133ZM215.31 263.285C215.44 263.41 211.402 267.479 206.337 272.326C201.272 277.173 196.934 280.642 196.697 280.037C196.458 279.432 195.105 277.32 193.688 275.344L191.112 271.749L197.622 265.305L204.13 258.862L209.603 260.96C212.613 262.112 215.181 263.159 215.31 263.285ZM436.585 265.491C437.718 266.817 437.472 267.056 434.976 267.056C432.481 267.056 432.235 266.817 433.368 265.491C434.101 264.629 434.826 263.926 434.976 263.926C435.127 263.926 435.85 264.629 436.585 265.491ZM156.175 279.45L151.25 284.241V276.512C151.25 265.25 153.584 262.915 157.98 269.782L161.102 274.66L156.175 279.45ZM225.61 266.631C232.059 268.769 232.534 267.771 218.579 281.382C204.685 294.932 205.801 294.431 202.286 288.7L199.566 284.267L209.444 274.619C214.878 269.311 219.609 264.969 219.957 264.969C220.307 264.969 222.85 265.716 225.61 266.631ZM243.14 272.931C247.615 274.749 249.309 272.39 230.215 290.929L213.711 306.954L210.75 302.038L207.787 297.122L221.599 283.66C236.309 269.323 235.389 269.781 243.14 272.931ZM128.417 279.757C127.329 286.661 127.244 286.794 118.293 295.403L109.267 304.088L119.262 288.292C124.762 279.603 129.317 272.562 129.386 272.644C129.456 272.725 129.019 275.926 128.417 279.757ZM403.504 278.423C403.304 281.234 403.639 284.441 404.25 285.55C405.427 287.688 391.446 302.786 389.785 301.172C389.38 300.778 387.944 298.691 386.591 296.534L384.133 292.613L393.979 282.964C399.395 277.656 403.835 273.314 403.848 273.314C403.859 273.313 403.705 275.612 403.504 278.423ZM259.502 278.742L262.859 280.095L242.335 299.915C231.046 310.816 221.613 319.241 221.373 318.634C221.133 318.03 219.773 315.917 218.354 313.941L215.771 310.346L233.122 293.339C251.931 274.904 251.106 275.361 259.502 278.742ZM166.435 283.092L169.269 287.654L160.259 296.369L151.25 305.085V297.317V289.55L156.845 284.039C163.571 277.416 162.949 277.477 166.435 283.092ZM273.198 283.597L278.759 285.465L254.953 308.599C227.97 334.819 230.526 333.113 226.953 327.299L224.229 322.865L245.386 302.263C257.023 290.93 266.79 281.674 267.09 281.694C267.39 281.713 270.139 282.569 273.198 283.597ZM290.817 287.536C293.139 287.898 295.241 288.512 295.49 288.905C295.738 289.296 283.009 302.187 267.201 317.552L238.459 345.488L235.492 340.565L232.525 335.642L258.127 310.727C273.488 295.776 284.301 286.026 285.162 286.346C285.951 286.64 288.496 287.175 290.817 287.536ZM308.656 291.371L314.276 292.647L280.627 325.359L246.977 358.07L244.167 354.047C242.621 351.835 241.356 349.55 241.356 348.97C241.356 347.566 300.57 289.993 301.955 290.049C302.55 290.073 305.564 290.669 308.656 291.371ZM176.079 298.134C177.323 300.376 176.643 301.268 165.132 312.502L152.859 324.478L152.034 317.451L151.209 310.425L161.14 300.727L171.072 291.029L172.911 293.386C173.925 294.682 175.35 296.819 176.079 298.134ZM411.929 294.716L415.584 298.382L407.093 306.689L398.601 314.996L395.432 310.258L392.262 305.519L399.646 298.284C408.292 289.81 407.321 290.092 411.929 294.716ZM124.866 302.5L123.401 311.344L99.157 334.839L74.9118 358.333L82.1368 346.858C86.1104 340.548 91.7344 331.628 94.6342 327.037C98.9319 320.237 125.13 292.286 126.133 293.431C126.242 293.555 125.672 297.636 124.866 302.5ZM460.432 296.505L456.966 299.875L453.501 296.505L450.035 293.135H456.966H463.898L460.432 296.505ZM329.972 295.931C331.55 296.52 257.268 370.329 255.099 370.329C254.687 370.329 253.123 368.335 251.624 365.896L248.898 361.463L283.476 327.752L318.053 294.041L323.162 294.669C325.971 295.014 329.036 295.582 329.972 295.931ZM344.602 299.006C350.163 299.91 353.049 296.667 305.878 342.529L263.133 384.089L260.164 379.162L257.196 374.235L296.742 335.735C328.27 305.04 336.724 297.348 338.434 297.792C339.614 298.099 342.39 298.645 344.602 299.006ZM359.969 305.143L361.999 308.807L318.572 351.076C271.114 397.269 271.289 397.136 267.134 389.895L265.492 387.034L309.467 344.257C356.43 298.573 356.361 298.627 359.969 305.143ZM422.658 305.148L426.315 308.818L416.762 318.15C406.558 328.119 406.341 328.178 402.869 321.851L400.797 318.076L409.279 309.779C419.162 300.112 418.028 300.503 422.658 305.148ZM169.052 329.538L152.323 345.807V338.001V330.197L165.961 316.904L179.599 303.611L182.69 308.44L185.781 313.269L169.052 329.538ZM426.698 329.351C413.912 341.828 415.361 341.223 411.677 335.636L408.759 331.21L419.154 321.051L429.548 310.893L433.619 314.76L437.69 318.625L426.698 329.351ZM367.421 316.74L370.329 321.567L333.471 357.423L296.612 393.28H288.566H280.52L322.344 352.596C345.348 330.219 364.246 311.911 364.34 311.911C364.434 311.911 365.82 314.084 367.421 316.74ZM191.18 321.568L194.102 325.994L173.48 346.093L152.859 366.19L152.54 358.671L152.221 351.154L169.69 334.141C189.787 314.569 187.459 315.932 191.18 321.568ZM120.991 327.324L119.72 335.807L90.6167 364.096C62.148 391.769 61.4286 392.376 57.5813 392.049L53.6489 391.715L59.553 382.327C64.7458 374.071 120.479 317.108 121.958 318.546C122.125 318.709 121.69 322.659 120.991 327.324ZM435.837 341.327L423.254 353.596L420.169 348.774L417.082 343.953L428.679 332.639L440.277 321.326L444.348 325.192L448.419 329.059L435.837 341.327ZM135.782 340.856C132.869 344.166 132.63 343.313 134.047 334.668C135.839 323.741 136.623 322.899 137.271 331.21C137.755 337.41 137.529 338.867 135.782 340.856ZM375.809 329.907L378.537 334.34L348.302 363.809L318.067 393.28H310.021H301.975L336.825 359.376C376.17 321.101 372.224 324.084 375.809 329.907ZM200.755 336.741C202.019 339.017 200.802 340.391 177.205 363.339L152.323 387.537V379.724V371.913L174.037 350.777L195.753 329.64L197.589 331.99C198.598 333.282 200.023 335.42 200.755 336.741ZM445.511 352.783C431.034 366.893 431.069 366.878 427.538 360.443L425.463 356.664L438.234 344.212L451.005 331.76L455.076 335.626L459.148 339.491L445.511 352.783ZM385.752 345.692C386.262 347.228 381.295 352.628 362.964 370.468L339.525 393.28H331.479H323.431L351.85 365.607L380.27 337.932L382.685 340.831C384.014 342.425 385.394 344.612 385.752 345.692ZM117.228 351.291L115.758 360.419L99.4591 376.328L83.1597 392.237H75.1109H67.0608L92.7889 367.201C106.938 353.43 118.557 342.165 118.606 342.165C118.657 342.165 118.036 346.272 117.228 351.291ZM189.172 372.57L167.897 393.28H159.85H151.802L178.04 367.748L204.277 342.217L207.362 347.038L210.449 351.86L189.172 372.57ZM465.869 353.854C462.338 357.369 461.308 357.811 456.647 357.811C447.241 357.811 442.525 362.359 442.499 371.452C442.488 375.769 440.673 380.026 439.451 378.606C439.236 378.357 437.78 376.283 436.213 373.997L433.364 369.839L447.549 356.017L461.734 342.193L465.788 346.044L469.844 349.894L465.869 353.854ZM133.936 363.699C128.378 369.205 128.625 369.532 130.369 358.976C131.535 351.921 132.397 349.638 134.827 347.165L137.841 344.099L138.16 351.649L138.478 359.197L133.936 363.699ZM392.09 355.333L394.996 360.156L378.527 376.197L362.059 392.237H354.012H345.963L367.397 371.374C379.185 359.898 388.91 350.51 389.006 350.51C389.104 350.51 390.491 352.68 392.09 355.333ZM475.202 355.204L477.721 357.811H472.52H467.319L469.839 355.204C471.224 353.769 472.431 352.596 472.52 352.596C472.61 352.596 473.816 353.769 475.202 355.204ZM215.849 360.167L218.77 364.592L204.064 378.937L189.359 393.28H181.31H173.263L192.549 374.502C214.696 352.94 212.125 354.521 215.849 360.167ZM457.512 445.428C386.61 514.395 370.079 530.98 372.233 530.979C376.163 530.976 546.361 365.434 545.827 362.132C545.533 360.312 528.429 376.446 457.512 445.428ZM400.567 368.504L403.287 372.937L393.408 382.587L383.529 392.237H375.478H367.426L381.879 378.154C398.439 362.016 397.032 362.742 400.567 368.504ZM132.322 386.131C124.919 393.404 124.858 393.372 126.519 383.135C127.741 375.606 128.194 374.665 132.838 370.022L137.841 365.022L138.16 372.55L138.48 380.08L132.322 386.131ZM113.255 376.441C111.168 389.122 107.887 392.237 96.6169 392.237H88.5311L101.333 379.754C108.376 372.888 114.258 367.389 114.407 367.535C114.557 367.68 114.038 371.687 113.255 376.441ZM224.656 373.951L226.726 377.724L218.782 385.502L210.838 393.28H202.783H194.728L207.524 380.803C221.12 367.545 221.135 367.54 224.656 373.951ZM408.679 381.255L411.299 385.919L408.188 389.078C405.263 392.048 404.59 392.237 396.991 392.237H388.905L396.896 384.413C406.329 375.178 405.405 375.425 408.679 381.255ZM448.617 381.207C450.554 382.026 453.066 382.981 454.198 383.328C456.045 383.896 455.83 384.389 452.106 388.098L447.952 392.235L444.893 387.454C440.707 380.914 442.158 378.477 448.617 381.207ZM233.844 391.718C232.875 392.854 230.291 393.28 224.363 393.28H216.214L222.566 387.038L228.916 380.797L232.047 385.477C234.613 389.313 234.937 390.437 233.844 391.718ZM468.24 455.86C405.921 516.48 391.531 530.98 393.688 530.979C397.614 530.976 546.36 386.293 545.827 382.995C545.533 381.176 530.541 395.256 468.24 455.86ZM466.066 395.387L454.285 406.883L453.587 403.598C453.204 401.791 452.269 399.185 451.511 397.807C450.223 395.467 450.516 394.924 455.926 389.596L461.72 383.892H469.784H477.848L466.066 395.387ZM138.378 389.628C138.378 392.99 138.123 393.28 135.16 393.28C131.202 393.28 131.152 392.63 134.825 388.903C138.429 385.244 138.378 385.234 138.378 389.628ZM415.131 391.255C415.131 391.795 414.107 392.237 412.855 392.237C410.96 392.237 410.801 391.976 411.903 390.683C413.243 389.113 415.131 389.448 415.131 391.255ZM478.968 466.293C425.233 518.567 412.985 530.979 415.144 530.977C419.062 530.975 546.358 407.15 545.827 403.858C545.533 402.039 532.653 414.068 478.968 466.293ZM489.697 476.725C444.545 520.654 434.439 530.979 436.599 530.977C440.509 530.975 546.357 428.004 545.827 424.72C545.533 422.903 534.764 432.88 489.697 476.725ZM500.427 487.159C463.859 522.741 455.893 530.979 458.057 530.977C461.953 530.973 546.356 448.854 545.827 445.583C545.533 443.765 536.876 451.694 500.427 487.159ZM511.16 497.593C483.176 524.83 477.347 530.979 479.516 530.976C483.391 530.971 546.353 469.696 545.826 466.444C545.532 464.629 538.985 470.511 511.16 497.593ZM521.896 508.029C502.501 526.918 498.799 530.979 500.979 530.973C504.81 530.965 546.346 490.516 545.824 487.302C545.53 485.493 541.093 489.336 521.896 508.029ZM532.65 518.475C521.854 529.012 520.249 530.977 522.459 530.968C526.165 530.951 546.33 511.255 545.82 508.151C545.526 506.358 543.189 508.19 532.65 518.475ZM543.586 528.98C541.79 530.893 541.803 530.98 543.854 530.98C545.285 530.98 546 530.284 546 528.893C546 526.42 545.989 526.42 543.586 528.98Z" fill="#008060"/>
</svg>
