<svg width="546" height="531" viewBox="0 0 546 531" fill="none" xmlns="http://www.w3.org/2000/svg">
<path fill-rule="evenodd" clip-rule="evenodd" d="M342.563 1.04792C331.04 2.97152 325.838 4.81046 312.351 11.7265C296.666 19.7713 296.203 21.5938 311.467 15.2068C330.284 7.33372 336.737 6.2755 361.875 6.941C374.152 7.26552 384.196 7.08445 384.196 6.53888C384.196 1.4759 359.5 -1.78105 342.563 1.04792ZM359.871 15.1434C355.497 16.1052 347.345 18.9553 341.755 21.4785C336.165 24.0018 330.977 26.0665 330.228 26.0665C329.477 26.0665 325.419 27.2117 321.212 28.6109C313.992 31.0095 306.523 31.8632 264.824 35.0519C246.995 36.4135 243.684 38.6357 236.599 53.9775C233.374 60.9664 228.896 77.5075 228.896 82.4388C228.896 84.8257 227.483 90.8881 226.417 93.0774C226.216 93.4937 138.745 94.8176 126.258 94.5942C113.437 94.3637 83.0388 104.965 67.7333 115.001C38.185 134.376 16.8282 169.72 7.72568 214.309C5.06098 227.356 4.5042 234.681 6.95947 224.402C22.7485 158.249 69.0887 111.269 115.228 114.639C148.82 117.092 184.023 141.026 200.652 172.719C202.516 176.272 204.294 179.47 204.602 179.825C209.632 185.622 226.28 237.188 228.799 254.766C239.772 331.355 239.183 364.333 225.916 416.275C221.555 433.35 213.17 457.2 208.898 464.678C193.281 492.013 168.684 521.145 158.653 524.188C147.754 527.494 163.874 527.466 184.457 524.141C190.631 523.143 198.142 521.968 201.147 521.523C205.608 520.867 207.26 519.908 210.161 516.286L213.715 511.853L232.688 509.883C262.1 506.828 275.299 502.504 293.312 490.019L302.508 483.644L359.958 483.561C452.327 483.427 459.41 482.094 473.324 462.202C487.348 442.157 487.436 440.873 487.579 256.703C487.673 137.72 487.67 137.668 479.398 126.689C474.445 120.114 466.483 113.783 459.974 111.243C457.658 110.338 455.342 109.198 454.828 108.704C454.314 108.212 451.578 106.785 448.748 105.531C445.918 104.278 439.392 100.678 434.246 97.5313C429.101 94.3849 422.365 90.2696 419.278 88.3884C416.191 86.5071 412.823 83.9909 411.793 82.7986C402.057 71.5204 396.121 85.1996 399.607 110.879C400.365 116.464 401.645 128.302 402.452 137.186C406.719 184.195 407.563 198.266 407.574 222.54C407.586 253.74 406.661 251.652 420.892 252.626C437.871 253.785 445.94 264.217 445.94 285.007C445.94 306.339 439.882 314.924 423.802 316.382C414.148 317.259 412.978 316.232 419.045 312.206C424.354 308.681 426.668 302.244 426.686 290.943C426.705 278.921 424.881 274.961 412.782 260.734L408.519 255.72L408.539 272.363C408.551 281.517 408.96 297.435 409.448 307.74C411.772 356.698 411.795 360.717 409.736 360.717C399.716 360.717 394.839 377.1 397.279 402.561C398.393 414.194 398.583 414.874 401.146 416.339C407.935 420.224 398.618 436.407 386.065 442.536C382.258 444.393 341.443 449.4 340.517 448.121C340.328 447.86 341.763 445.976 343.708 443.935C361.777 424.962 378.368 393.437 388.102 359.576C389.658 354.163 391.688 347.117 392.61 343.919C402.069 311.187 400.288 260.934 388.42 225.693C385.42 216.79 385.381 216.418 385.807 201.789C386.881 164.989 376.466 113.626 364.879 98.5801C358.392 90.1591 355.381 88.3154 344.457 86.0814C332.058 83.5441 324.321 70.4974 324.321 52.1221C324.321 37.6034 348.366 22.9883 386.065 14.5978C390.504 13.6101 389.605 13.4479 379.517 13.4243C373.086 13.4079 364.245 14.1839 359.871 15.1434ZM349.112 50.523C346.812 51.252 347.488 51.586 352.855 52.3643C366.132 54.2926 371.931 56.4843 389.203 66.1C396.717 70.2835 410.763 74.6739 421.617 76.2306C427.689 77.1031 427.698 77.1101 428.166 81.5829C428.99 89.4701 440.151 96.372 462.661 102.912C473.267 105.992 493.995 104.929 496.721 101.165C498.916 98.1333 501.012 85.6299 500.096 81.042C499.158 76.3529 495.524 74.2482 495.524 78.3964C495.524 79.4617 495.057 80.3341 494.489 80.3341C493.918 80.3341 493.695 79.4617 493.992 78.3964C494.673 75.9437 489.921 75.671 488.189 78.0625C487.298 79.2901 486.866 79.3065 486.341 78.1331C485.623 76.5293 483.653 76.5222 481.806 78.1166C481.206 78.634 480.574 78.5658 480.403 77.9638C479.776 75.7791 473.971 75.0854 473.403 77.1266C473.11 78.1801 472.451 79.0431 471.935 79.0431C471.421 79.0431 471.225 78.2342 471.499 77.2465C472.122 75.0031 466.5 73.1265 465.545 75.2594C465.131 76.1836 464.714 75.9649 464.343 74.6292C463.728 72.414 459.039 71.7485 459.039 73.8743C459.039 74.5845 458.617 75.1654 458.102 75.1654C457.588 75.1654 457.168 74.2271 457.168 73.0818C457.168 71.5039 456.49 71.1347 454.384 71.5604C452.853 71.8708 451.484 71.6897 451.343 71.1559C450.898 69.4768 445.94 68.287 445.94 69.8578C445.94 70.6456 445.475 71.2899 444.905 71.2899C444.336 71.2899 444.096 70.4716 444.375 69.4698C444.704 68.2823 444.016 67.351 442.394 66.789C440.91 66.274 439.771 66.488 439.572 67.3157C439.387 68.08 438.804 68.7055 438.278 68.7055C437.752 68.7055 437.549 67.8825 437.829 66.8736C438.11 65.8672 437.689 64.6984 436.896 64.2775C435.884 63.7413 435.627 62.5491 436.036 60.2939C436.701 56.6395 436.39 56.4208 433.737 58.6925C432.508 59.7436 431.616 59.8565 431.178 59.0123C424.844 46.8357 417.88 47.9504 419.38 60.9006C420.667 72.0213 409.077 71.2053 383.259 58.3585C368.082 50.8052 356.548 48.1597 349.112 50.523ZM510.125 110.38C521.088 126.964 526.254 165.718 519.38 179.825C514.892 189.036 515.016 190.758 520.082 189.521C536.395 185.54 536.056 183.162 536.436 304.511C536.6 357.098 536.984 403.114 537.289 406.768C537.87 413.74 535.825 425.275 533.293 429.298C532.588 430.42 532.011 432.055 532.011 432.927C532.011 433.802 531.59 434.159 531.074 433.719C530.56 433.28 530.133 428.45 530.124 422.982C530.117 417.517 529.702 412.174 529.203 411.107C528.542 409.693 528.284 410.742 528.25 414.984C527.992 446.961 520.564 460.904 500.918 466.287C488.494 469.692 483.493 472.269 491.315 471.237C493.888 470.898 499.115 470.268 502.932 469.835C518.117 468.121 528.607 457.941 530.644 442.945C530.994 440.372 532.937 435.072 534.962 431.166C541.588 418.385 541.556 418.643 541.972 374.93C542.59 309.704 542.986 295.959 544.551 285.339C546.61 271.375 546.467 256.179 544.173 244.743C543.143 239.612 542.302 232.334 542.302 228.564C542.302 206.786 535.927 174.602 531.16 172.307C528.478 171.016 528.267 170.466 528.234 164.709C528.088 137.76 518.052 107.472 508.155 104.109C505.413 103.178 505.459 103.323 510.125 110.38ZM236.813 112.391C241.613 115.418 244.799 118.689 244.799 120.589C244.799 121.191 236.275 121.675 225.855 121.668L206.911 121.654L202.232 116.513C199.659 113.684 196.923 111.326 196.151 111.267C195.195 111.196 195.343 110.79 196.62 109.99C200.81 107.363 231.773 109.214 236.813 112.391ZM284.134 115.829C284.652 115.389 285.014 115.507 284.94 116.092C284.626 118.595 285.117 119.613 285.857 117.995C286.463 116.676 288.592 118.623 294.575 125.974C337.353 178.541 355.381 294.98 336.059 393.921C333.206 408.534 326.001 434.225 325.426 431.843C325.142 430.66 324.604 431.1 323.761 433.2C321.527 438.766 322.383 433.536 325.625 421.802C356.471 310.165 337.154 175.896 281.739 116.765C279.847 114.747 279.632 114.244 281.071 115.208C282.239 115.991 283.618 116.271 284.134 115.829ZM384.424 116.836C380.295 123.963 383.741 142.355 389.207 142.355C392.106 142.355 394.487 137.17 394.42 130.999C394.332 122.785 392.772 117.553 392.68 125.158C392.644 128.137 392.219 130.912 391.734 131.326C390.501 132.377 386.852 120.492 387.518 117.595C388.153 114.834 385.904 114.282 384.424 116.836ZM82.9502 126.729C64.2139 131.081 46.4634 147.079 33.3306 171.454C31.0405 175.703 28.9428 179.47 28.667 179.825C27.3866 181.471 21.3574 196.825 19.0264 204.374C17.5995 208.994 16.0671 213.707 15.621 214.847C11.3967 225.648 5.52411 266.841 4.73406 291.204C3.50473 329.158 12.2378 384.929 24.32 416.275C36.8382 448.753 49.5129 471.507 64.0487 487.597C71.452 495.792 72.5247 495.087 65.5778 486.593C59.867 479.611 52.4501 467.354 47.2671 456.33C39.7089 440.257 40.0375 439.333 49.0379 451.354C53.0256 456.678 58.733 463.613 61.7229 466.759C79.1413 485.102 81.2203 486.308 72.1791 472.819C66.4053 464.208 66.0749 463.413 68.0058 462.783C70.0013 462.134 70.0201 462.007 68.4127 460.184C65.3275 456.685 52.8945 435.391 53.4717 434.594C53.7833 434.164 55.7379 436.556 57.8152 439.911C59.8908 443.267 62.0123 445.651 62.5299 445.212C63.1463 444.685 63.1191 443.928 62.4499 443.006C61.8914 442.232 61.4334 440.781 61.4334 439.777C61.4334 438.474 61.9017 438.677 63.0714 440.478C69.2147 449.945 82.0751 462.818 92.7747 470.204C105.197 478.781 105.465 478.303 95.7101 464.939C90.7502 458.145 86.6927 451.975 86.6927 451.227C86.6927 448.619 88.7036 449.908 92.693 455.072C99.9566 464.476 106.408 470.324 118.855 478.795C133.6 488.829 141.907 491.975 130.46 483.19C70.003 436.793 43.1466 351.482 59.0956 256.497C66.281 213.707 94.7515 169.104 123.18 156.105C131.914 152.109 150.332 149.28 155.29 151.171C159.816 152.897 159.58 151.738 154.247 146.08C136.684 127.444 110.481 120.332 82.9502 126.729ZM260.53 136.095C263.515 140.942 266.532 148.949 265.769 150.005C265.047 151.004 231.966 153.516 230.365 152.69C229.676 152.335 227.144 148.7 224.74 144.613L220.369 137.179L222.822 135.89C224.171 135.18 227.879 134.543 231.062 134.475C234.244 134.404 239.163 133.903 241.993 133.365C253.986 131.074 257.782 131.634 260.53 136.095ZM279.418 176.89C282.353 185.521 282.849 185.232 257.92 189.462C246.219 191.447 245.72 191.278 243.801 184.627C243.142 182.341 241.863 178.986 240.959 177.168C238.143 171.503 239.514 170.833 257.499 169.053C276.535 167.169 276.048 166.995 279.418 176.89ZM390.969 182.391C387.39 190.306 391.027 203.082 396.86 203.082C401.662 203.082 403.28 197.022 400.943 187.769C399.586 182.393 398.107 182.506 399.246 187.901C400.104 191.967 398.919 197.914 397.252 197.914C396.377 197.914 395.422 191.082 395.422 184.832C395.422 179.136 393.033 177.826 390.969 182.391ZM289.419 214.017C293.64 229.096 293.662 229.065 277.075 231.52C272.445 232.207 266.971 233.105 264.914 233.517L261.172 234.267L259.001 225.458C255.194 210.01 254.988 210.516 265.849 208.635C270.995 207.743 275.835 206.765 276.608 206.462C277.38 206.158 280.094 206.001 282.638 206.111L287.264 206.311L289.419 214.017ZM293.863 253.303C297.31 254.326 299.579 259.624 300.374 268.508C301.11 276.732 301.823 276.41 281.805 276.934L266.888 277.325L265.681 268.306C264.054 256.167 264.409 255.095 270.336 254.208C273.014 253.809 276.467 253.277 278.011 253.026C282.585 252.28 290.904 252.426 293.863 253.303ZM304.156 299.131C305.561 300.551 305.884 302.799 305.971 311.728L306.077 322.6L298.593 323.371C294.476 323.794 287.034 324.599 282.054 325.156L272.997 326.172L272.508 321.8C269.99 299.284 269.61 300.01 284.56 298.715C301.057 297.285 302.356 297.313 304.156 299.131ZM0.141923 326.475C1.36445 406.392 22.883 469.974 61.7399 508.484C84.6376 531.179 112.243 536.865 140.954 524.801C144.3 523.395 147.877 522.24 148.907 522.236C154.797 522.2 180.698 500.714 190.887 487.409C209.582 462.997 221.826 431.408 227.969 391.727C230.265 376.898 231.76 333.582 229.975 333.582C229.337 333.582 228.875 335.825 228.845 339.073C228.519 373.991 222.357 412.988 213.866 433.87C210.013 443.345 205.211 453.177 202.111 457.95C200.376 460.617 198.957 463.368 198.957 464.067C198.957 464.765 193.802 472.471 187.498 481.191C166.143 510.729 148.584 520.392 116.631 520.18C88.472 519.995 73.2041 510.4 50.1753 478.421C20.6235 437.379 10.4636 403.142 0.683378 311.618C-0.0249382 304.991 -0.139019 308.123 0.141923 326.475ZM303.243 354.196C303.546 354.873 302.504 360.054 300.924 365.707L298.055 375.988L288.968 376.776C283.971 377.211 276.368 377.902 272.072 378.311C264.625 379.024 264.289 378.942 264.843 376.529C265.486 373.726 268.146 356.735 268.172 355.259C268.18 354.744 274.608 354.146 282.455 353.93C290.301 353.714 298.066 353.408 299.707 353.25C301.35 353.093 302.94 353.518 303.243 354.196ZM288.422 409.496C285.564 417.124 274.55 421.284 260.831 419.916C253.717 419.203 253.714 419.201 255.97 411.937L257.831 405.94H273.792H289.753L288.422 409.496ZM270.863 452.981C269.118 458.275 240.823 463.989 234.2 460.387C227.086 456.516 245.475 450.707 266.998 450.025C271.841 449.873 271.88 449.901 270.863 452.981ZM244.453 486.238C241.319 488.754 232.376 491 221.879 491.907L211.588 492.796L213.49 490.061C215.678 486.915 223.98 485.175 237.784 484.963C244.257 484.864 245.798 485.158 244.453 486.238Z" fill="#008060"/>
</svg>
