<svg width="546" height="531" viewBox="0 0 546 531" fill="none" xmlns="http://www.w3.org/2000/svg">
<path fill-rule="evenodd" clip-rule="evenodd" d="M267.714 0.901885C266.209 1.3433 258.363 3.39003 250.277 5.45062C233.388 9.75589 189.394 21.0308 157.961 29.1068C146.114 32.1512 124.574 37.6679 110.095 41.3655C58.0407 54.6554 55.9399 55.2671 54.2238 57.6325C51.9047 60.8293 0 216.11 0 219.851C0 227.68 4.09838 230.987 12.3081 229.782C18.5418 228.865 46.0702 224.958 64.2788 222.405C71.6125 221.375 83.6133 219.683 90.947 218.644C98.2807 217.604 117.976 214.833 134.712 212.486C205.21 202.594 204.691 202.679 206.513 200.809C208.16 199.117 217.434 170.547 260.323 35.0273C266.268 16.2425 271.287 0.870211 271.475 0.866252C271.663 0.860314 281.184 29.5918 292.635 64.7109C342.805 218.59 338.467 205.781 341 207.563C342.064 208.309 345.549 209.196 348.746 209.532C354.885 210.18 437.089 219.364 501.708 226.625C544.316 231.411 542.988 231.455 545.331 225.209C547.328 219.889 547.991 222.07 499.335 73.9905C493.165 55.2176 493.513 55.6471 482.249 52.8898C477.836 51.809 446.224 43.8813 411.999 35.2728C295.24 5.90391 271.208 -0.0997087 270.829 0.00124248C270.619 0.0566666 269.218 0.462451 267.714 0.901885ZM261.44 153.974C258.395 155.801 258.659 155.035 244.742 202.404C231.777 246.544 230.772 249.214 226.779 250.134C225.599 250.406 188.016 255.081 143.259 260.523C54.6518 271.299 59.1623 270.618 56.8546 273.555C54.1664 276.98 54.073 278.611 54.7164 311.119C55.0582 328.395 55.8451 369.888 56.464 403.327C57.6616 467.969 57.6358 467.589 61.0621 470.683C61.9094 471.447 85.0579 478.648 112.504 486.683C139.951 494.717 173.33 504.5 186.682 508.421C282.064 536.442 268.333 534.858 309.084 522.528C322.06 518.601 336.061 514.385 340.199 513.158C344.336 511.931 367.567 504.975 391.826 497.7C416.085 490.426 446.702 481.257 459.866 477.324C484.153 470.067 486.363 469.064 488.063 464.505C489.459 460.762 489.292 280.729 487.891 276.989C486.413 273.052 484.235 271.851 474.568 269.644C460.521 266.437 458.006 266.223 455.48 268.025C451.179 271.089 451.319 268.232 451.319 353.34C451.319 395.866 451.109 430.663 450.855 430.663C450.374 430.663 384.172 448.07 363.106 453.737C356.525 455.507 334.061 461.461 313.187 466.968C292.315 472.474 274.544 477.209 273.697 477.488L272.159 477.995V319.492C272.159 144.593 272.491 157.2 267.812 154.14C264.993 152.295 264.271 152.277 261.44 153.974Z" fill="#004C3F"/>
</svg>
