<svg width="546" height="532" viewBox="0 0 546 532" fill="none" xmlns="http://www.w3.org/2000/svg">
<path d="M151.397 3.84247C140.706 8.13462 132.865 13.5344 127.448 20.0419C121.032 28.0723 115.758 40.395 115.045 49.2562L114.475 57.2866H301.369H488.264V238.803V420.319L496.532 419.766C514.78 418.519 533.027 405.643 541.581 388.197L546 379.198V210.281V41.3642L541.581 32.3645C536.021 20.8726 525.757 10.9037 513.924 5.50395L504.658 1.2118L332.162 0.934888L159.666 0.519518L151.397 3.84247Z" fill="#008060"/>
<path d="M44.906 113.223C27.6564 116.962 11.5473 129.7 3.84909 145.484L0 153.514V322.431V491.348L4.1342 499.655C9.55144 510.316 21.8115 522.223 32.7885 527.485L41.342 531.5H215.264H389.185L397.454 527.762C414.418 520.008 428.104 502.84 431.24 485.117C432.381 478.748 432.666 429.319 432.381 316.2L431.953 156.283L428.674 148.668C422.116 133.023 410.284 121.531 394.175 115.162L386.334 111.977L219.54 111.7C91.3802 111.562 50.8935 111.839 44.906 113.223ZM111.909 174.836C158.525 182.728 203.431 201.42 244.488 230.08C264.019 243.788 297.52 276.325 311.776 295.432C348.699 345.138 369.512 400.936 372.363 457.564L373.219 475.148L364.808 475.564C360.246 475.841 348.128 475.841 337.864 475.702L319.189 475.148L317.621 456.318C314.627 421.981 307.072 394.982 292.245 365.214C266.727 314.123 224.387 273.279 171.213 248.357C140.848 234.096 109.2 226.204 74.5582 223.988L59.5896 223.019L58.7342 202.805C58.3065 191.728 58.3065 179.821 58.7342 176.498L59.5896 170.406L77.552 171.236C87.3885 171.652 102.927 173.313 111.909 174.836ZM96.9399 283.663C136.856 291.555 170.785 309.416 200.438 338.215C235.792 372.691 256.606 416.166 259.742 462.272L260.597 475.01L252.186 475.841C247.625 476.256 234.224 476.117 222.392 475.702L201.008 474.733L200.01 462.826C196.446 416.443 166.081 373.798 120.89 351.645C108.772 345.83 90.5248 340.43 78.4073 339.184C73.7029 338.63 67.1452 337.938 63.8663 337.523L57.7363 336.83V308.308V279.786L71.707 280.617C79.2627 281.032 90.6674 282.417 96.9399 283.663ZM101.359 410.212C116.613 416.858 125.309 430.15 125.309 447.042C125.452 482.348 84.6799 499.793 56.0256 476.81C53.1744 474.456 49.0402 469.056 46.7593 464.626C41.1995 453.688 41.1995 439.288 46.6167 429.042C57.1661 409.381 80.5457 401.351 101.359 410.212Z" fill="#004C3F"/>
</svg>
