<svg width="546" height="531" viewBox="0 0 546 531" fill="none" xmlns="http://www.w3.org/2000/svg">
<path d="M538.795 400.8H473.408L412.743 360.827C406.838 356.958 398.571 358.079 394.283 363.406C389.995 368.732 391.238 376.188 397.143 380.056L428.468 400.8H407.584C403.109 400.8 399.628 404.5 400.436 408.481L419.704 509.507C420.326 512.647 423.31 514.945 426.852 514.945H473.158H520.086C523.629 514.945 526.675 512.647 527.234 509.451L545.881 408.424C546.689 404.444 543.27 400.8 538.795 400.8ZM472.723 436.12C467.129 436.905 461.909 433.429 461.038 428.383C460.727 426.421 461.1 424.515 462.033 422.833C463.463 420.254 466.26 418.292 469.678 417.843C473.47 417.339 477.137 418.741 479.312 421.319C480.369 422.553 481.114 424.01 481.364 425.636C482.172 430.627 478.38 435.335 472.723 436.12Z" fill="#008060"/>
<path d="M203.528 124.686C218.508 124.686 234.979 117.173 234.979 117.173C227.21 113.081 223.232 104.951 221.305 96.7661C229.448 108.932 243.557 116.949 259.531 116.949C275.505 116.949 289.614 108.932 297.756 96.7661C295.83 105.007 291.852 113.081 284.082 117.173C284.082 117.173 300.553 124.686 315.534 124.686C325.23 124.686 334.367 121.546 337.972 111.062C338.531 109.493 337.785 107.811 336.169 107.082C330.762 104.447 318.89 96.8782 318.89 81.2925C318.89 61.1095 324.484 0 259.531 0C194.578 0 200.172 61.1095 200.172 81.2925C200.172 96.8782 188.301 104.447 182.893 107.082C181.277 107.867 180.531 109.549 181.091 111.062C184.695 121.49 193.831 124.686 203.528 124.686Z" fill="#004C3F"/>
<path d="M408.455 304.987C417.965 298.596 419.954 286.43 412.868 277.852L309.876 152.942C287.935 126.592 244.239 127.77 216.953 146.103C216.891 146.159 131.613 203.4 131.613 203.4L80.0859 177.666V222.012L122.911 243.429C126.143 245.055 129.748 245.839 133.353 245.839C137.891 245.839 142.428 244.55 146.22 242.027L194.825 209.398V257.557L143.361 387.064C141.558 391.381 145.163 396.034 150.26 396.034H194.825V496.332C194.825 510.741 207.754 522.402 223.728 522.402C239.702 522.402 252.63 510.741 252.63 496.332V395.922H266.553V496.22C266.553 510.628 279.482 522.29 295.455 522.29C311.429 522.29 324.357 510.628 324.357 496.22V395.922H368.923C374.082 395.922 377.625 391.325 375.823 386.952L324.357 257.445V235.299L378.496 300.95C382.722 306.052 389.187 308.743 395.775 308.743C400.126 308.799 404.601 307.566 408.455 304.987Z" fill="#004C3F"/>
<path d="M68.2764 388.522V216.07V201.381V32.6293C68.2764 26.4622 62.6824 21.4165 55.8452 21.4165C49.0081 21.4165 43.4141 26.4622 43.4141 32.6293V387.233C46.5219 386.672 49.7539 386.392 52.9239 386.392C58.1444 386.392 63.3661 387.121 68.2764 388.522Z" fill="#008060"/>
<path d="M146.469 517.245C125.957 507.994 109.237 489.997 109.237 465.834C109.237 441.67 93.5121 431.187 87.2965 427.991C79.7757 425.356 71.0117 423.506 61.564 422.777C58.767 422.553 55.8457 422.44 52.9244 422.44C51.6812 422.44 50.376 422.44 49.1329 422.497C35.5829 422.946 23.0896 425.692 13.3933 430.009C-1.27548 438.811 0.0297927 457.705 0.0297927 457.705C0.0297927 517.636 49.9409 530.98 94.3823 530.98C113.961 530.98 132.484 528.4 145.164 526.046C150.074 525.205 150.944 519.263 146.469 517.245Z" fill="#008060"/>
<path d="M41.052 411.228C43.6004 411.004 46.2109 410.835 48.8215 410.779C50.1889 410.723 51.5563 410.723 52.9237 410.723C56.1558 410.723 59.3258 410.835 62.4336 411.06C65.0441 411.228 67.6547 411.508 70.2031 411.845C72.3785 412.125 74.4918 412.461 76.6051 412.854C78.2211 413.19 79.8372 413.527 81.4533 413.863C80.5831 412.181 79.6507 410.611 78.5941 409.21C77.1645 407.303 75.6106 405.622 73.9946 404.276C72.7514 403.266 71.4462 402.425 70.0787 401.809C69.5193 401.529 68.8978 401.305 68.3384 401.08C63.4902 399.174 58.2691 398.165 52.9859 398.165C49.7538 398.165 46.5839 398.557 43.4761 399.286C41.4871 399.735 39.4981 400.352 37.5713 401.136C37.0119 401.361 36.4525 401.585 35.8931 401.809C34.5256 402.426 33.1582 403.323 31.8529 404.388C28.9938 406.743 26.4454 410.051 24.5186 413.863C27.7507 413.134 31.1071 412.461 34.5878 411.957C36.7011 411.676 38.815 411.396 41.052 411.228Z" fill="#004C3F"/>
</svg>
