<svg width="546" height="531" viewBox="0 0 546 531" fill="none" xmlns="http://www.w3.org/2000/svg">
<path d="M352.975 2.8708C351.08 4.484 348.126 7.01134 346.454 8.46322C344.503 10.1302 342.775 12.2274 341.827 14.1094C340.768 16.2066 340.044 17.0132 339.486 16.7981C338.427 16.3679 338.427 16.1528 339.765 13.8943L340.935 12.0123L339.096 14.0019C337.312 15.9377 337.201 15.9377 335.752 15.1849C333.912 14.2707 333.856 13.733 335.194 11.8509C336.922 9.43114 337.145 8.67832 335.64 10.3991C334.247 11.9585 334.191 11.9585 334.191 10.7755C334.191 8.89341 332.853 9.37737 329.342 12.4962C327.558 14.0556 324.604 16.099 322.764 17.0132C310.056 23.1971 295.787 35.081 288.763 45.3517C280.068 58.0422 277.671 68.4205 278.953 87.1873C279.511 95.0383 280.96 106.223 282.298 112.999L282.744 115.526L280.96 115.203C279.455 114.934 278.953 115.149 277.894 116.44C276.724 117.838 276.668 118.322 276.947 123.592C277.225 129.776 279.566 140.853 281.294 144.133C281.907 145.263 283.078 146.93 283.914 147.897C285.14 149.296 285.698 150.801 286.478 154.673C291.773 182.205 314.348 211.404 336.978 220.061C351.526 225.6 365.684 223.449 381.848 213.124C400.353 201.294 417.242 176.344 422.036 153.705C422.761 150.317 423.374 148.704 424.489 147.521C426.885 144.994 427.777 142.897 429.561 135.53C431.735 126.496 432.181 119.72 430.787 117.139C430.062 115.795 429.338 115.203 428.279 115.096L426.774 114.934L427.61 112.407C433.128 95.3071 433.853 74.7119 429.449 61.7526C423.987 45.5668 410.219 33.0914 390.265 26.316C387.589 25.4018 385.081 24.4877 384.691 24.2726C384.022 23.8424 383.743 23.7886 381.736 23.6811C381.068 23.6273 379.563 22.7669 378.448 21.799C376.776 20.4009 376.497 20.2934 377.054 21.2613C377.612 22.283 377.556 22.4981 376.831 22.4981C376.386 22.4981 375.995 22.3367 375.995 22.0679C375.995 21.8528 375.215 20.8311 374.323 19.8094C372.874 18.0886 372.762 18.0349 373.041 19.2717C373.376 20.5084 373.153 20.4009 370.421 18.1962C365.126 13.9481 361.336 8.517 360.611 4.26891L360.277 2.11799L358.549 2.92457C357.657 3.40853 355.595 4.91419 354.09 6.31229L351.303 8.78586L352.752 6.04342C353.532 4.53777 354.87 2.54817 355.651 1.58025C357.88 -0.893319 356.933 -0.463146 352.975 2.8708Z" fill="#004C3F"/>
<path d="M299.353 211.189C295.563 218.287 276.668 228.289 250.024 237.376C246.178 238.721 242.667 239.904 242.221 240.065C241.775 240.226 243.67 241.463 247.014 243.184C290.658 265.553 321.036 304.217 331.069 350.3C332.909 358.904 333.577 363.959 334.191 373.96C334.636 381.758 334.191 394.932 333.299 400.094L332.964 402.138H426.439H519.858L521.196 400.847C523.648 398.481 524.707 393.05 525.989 376.058C528.442 343.794 519.524 302.227 503.025 269.371C500.126 263.618 499.123 262.22 495.611 258.886C485.467 249.206 465.679 239.366 437.308 229.848C427.777 226.622 417.465 221.782 412.671 218.287C409.216 215.759 405.537 211.565 405.537 210.221C405.537 208.769 404.533 209.952 402.248 214.092C389.317 237.161 375.103 252.379 361.726 257.272C356.653 259.154 349.798 259.585 344.837 258.348C330.456 254.799 316.354 240.603 304.593 217.857L300.301 209.468L299.353 211.189Z" fill="#004C3F"/>
<path d="M142.671 233.827C129.07 234.849 113.686 238.075 101.033 242.485C86.9871 247.378 69.485 256.896 57.1666 266.414C50.8123 271.307 38.8284 282.922 33.6446 289.214C16.4212 310.132 5.6635 333.953 1.31583 361.001C-0.300604 371.11 -0.467822 392.082 1.03714 401.869C5.32906 429.67 15.9195 453.599 33.3102 474.893C38.9956 481.83 51.3697 493.714 58.2814 498.93C75.4491 511.781 94.6234 520.977 114.69 526.085C167.976 539.528 224.273 524.848 263.123 487.368C287.593 463.762 303.144 432.735 307.157 399.664C308.216 390.792 308.216 373.745 307.157 364.98C299.465 301.367 250.08 249.368 185.144 236.516C172.324 233.989 155.1 232.913 142.671 233.827ZM167.252 260.553C170.596 266.468 189.157 281.793 212.122 297.549C221.207 303.733 225.834 307.712 230.293 313.089C236.926 321.048 241.05 329.006 243.614 338.9C244.395 342.019 245.008 345.461 244.896 346.536L244.729 348.472L241.385 343.74C228.621 325.511 211.843 310.669 196.18 303.679C190.439 301.098 183.249 299.054 178.455 298.57L174.944 298.248L174.609 342.234C174.386 366.486 174.219 402.407 174.219 422.141C174.219 446.232 173.996 458.922 173.606 460.858C171.098 472.366 159.838 482.529 144.9 486.669C139.159 488.283 126.896 488.39 121.267 486.938C112.571 484.68 104.322 479.087 101.535 473.495C96.7415 463.869 99.3055 452.846 108.391 444.027C119.26 433.541 136.261 428.809 150.976 432.197L155.268 433.165V349.601C155.268 258.563 155.045 264.801 158.445 261.682C160.173 260.069 163.294 258.617 165.022 258.563C165.747 258.563 166.527 259.262 167.252 260.553Z" fill="#004C3F"/>
<path d="M328.617 423.217C325.105 436.391 318.027 452.093 309.554 465.429L308.439 467.203H427.22H546V444.081V420.958H437.587H329.23L328.617 423.217Z" fill="#008060"/>
<path d="M292.386 487.476C278.396 503.016 254.651 519.095 233.581 527.214C230.85 528.29 228.453 529.258 228.342 529.365C228.23 529.473 299.632 529.58 387.032 529.58H546V506.189V482.798H421.311H296.567L292.386 487.476Z" fill="#008060"/>
</svg>
