<svg width="546" height="532" viewBox="0 0 546 532" fill="none" xmlns="http://www.w3.org/2000/svg">
<path d="M258.254 1.10065C236.873 2.88775 213.413 9.44045 194.311 19.0258C179.766 26.3367 160.864 39.8753 150.073 50.8687C129.429 71.8265 114.75 97.7665 108.181 125.06C105.433 136.379 104.629 143.527 104.16 160.261L103.757 176.832L101.546 180.406C100.138 182.789 98.5964 184.414 97.1888 185.118C94.0386 186.688 85.8613 193.62 83.1803 197.086C77.2819 204.505 73.2603 212.737 70.1771 223.405C67.7641 231.853 67.1609 245.175 68.8365 254.165C71.1825 266.891 76.0754 278.968 84.1186 291.856C90.017 301.388 93.9045 305.882 102.082 312.489C115.353 323.266 127.351 327.382 147.057 327.977C171.119 328.681 183.854 324.62 195.048 312.543C197.193 310.215 199.405 307.778 199.941 307.128L200.946 305.882L208.654 308.807C231.108 317.417 249.34 320.775 273.335 320.775C297.733 320.775 316.634 317.201 338.686 308.482C343.311 306.641 347.199 305.07 347.4 305.016C347.601 304.962 349.411 306.911 351.421 309.348C359.062 318.555 367.977 324.078 379.372 326.624C383.996 327.653 386.275 327.761 398.675 327.761C410.941 327.761 413.421 327.598 418.113 326.569C431.92 323.591 443.717 316.822 454.71 305.666C465.501 294.672 475.488 275.61 479.912 257.468C480.783 253.786 481.118 249.887 481.118 241.493C481.118 229.362 480.247 224.705 476.024 214.253C470.394 200.281 460.139 188.584 449.146 183.601C443.248 180.894 443.114 180.406 442.511 161.615C441.907 140.224 439.83 127.822 434.266 111.522C426.826 89.6975 413.354 68.0898 396.329 50.8687C361.408 15.5058 309.664 -3.1234 258.254 1.10065ZM334.933 117.208C356.851 152.571 384.533 172.283 422.604 179.594L429.91 181.002L429.441 184.035C428.77 188.8 426.558 197.844 424.481 204.668C413.086 241.276 386.141 273.281 350.349 292.723C342.038 297.218 325.817 303.662 316.567 306.099C281.512 315.468 244.916 313.356 212.073 299.98C178.291 286.278 150.14 261.53 133.383 230.77C126.815 218.694 121.251 204.072 118.906 192.754C118.436 190.804 117.967 188.638 117.766 187.934C117.431 186.688 117.565 186.688 119.978 187.013C135.394 189.179 174.404 189.992 189.217 188.53C224.003 185.009 255.707 174.558 280.708 158.257C298.604 146.614 314.825 129.826 324.946 112.497C326.823 109.301 328.364 106.81 328.431 106.864C328.498 106.919 331.38 111.576 334.933 117.208Z" fill="#004C3F"/>
<path d="M199.069 331.606C193.305 333.285 185.597 337.184 180.436 341.029C174.873 345.145 174.27 346.282 175.476 349.639C177.353 354.784 185.195 366.048 199.069 383.648L206.912 393.667H238.615H270.319L270.185 381.049L269.984 368.485L265.158 368.106C262.477 367.889 257.919 367.077 255.104 366.319C241.43 362.636 231.108 355.705 216.429 340.379C209.928 333.664 205.973 330.306 204.432 330.306C203.962 330.306 201.616 330.902 199.069 331.606Z" fill="#008060"/>
<path d="M340.295 331.064C339.557 331.498 335.335 335.559 330.978 340.108C318.243 353.322 307.251 361.337 296.794 364.965C291.968 366.644 284.059 368.214 280.239 368.214H277.021V380.941V393.667H308.524H340.094L345.657 386.735C358.66 370.597 369.719 354.892 371.529 349.964C371.998 348.719 372.199 347.094 371.931 346.282C370.859 342.978 360.872 336.371 351.287 332.743C345.188 330.469 342.171 329.981 340.295 331.064Z" fill="#008060"/>
<path d="M99.2666 347.636C88.1402 349.152 77.0808 352.997 64.8149 359.604C56.9057 363.882 41.2215 375.958 34.2507 383.107C24.1296 393.504 13.6064 407.476 5.02701 421.827C0.268107 429.734 0 430.438 0 433.904C0 437.045 0.335134 438.128 2.54702 441.702C7.70808 450.15 17.3599 456.053 42.0928 465.963C70.7803 477.444 89.1456 487.625 107.98 502.68C120.447 512.59 127.552 519.955 131.842 527.483L134.188 531.49L135.26 529.432C140.756 518.818 152.955 444.789 153.022 421.611C153.022 395.833 139.55 366.211 121.721 353.051C114.616 347.798 112.873 347.094 107.31 347.148C104.629 347.202 101.009 347.419 99.2666 347.636Z" fill="#004C3F"/>
<path d="M429.842 349.26C414.292 358.846 403.635 374.063 396.999 396.05C392.844 409.588 392.039 421.123 393.983 438.832C397.803 473.545 406.651 521.58 410.74 529.432L411.812 531.436L414.761 526.508C422.469 513.836 442.309 497.373 467.042 483.184C477.297 477.281 489.764 471.487 505.314 465.367C528.103 456.378 538.359 450.042 543.52 441.594C545.665 438.128 546 437.045 546 433.904C546 430.438 545.665 429.734 540.973 421.827C532.393 407.476 521.87 393.504 511.749 383.107C509.738 381.049 503.639 375.796 498.277 371.464C479.241 356.138 460.071 348.123 440.567 347.311L433.529 346.986L429.842 349.26Z" fill="#004C3F"/>
<path d="M211 476.632C205.37 477.498 198.466 480.531 194.11 484.051C180.57 494.936 180.503 511.778 193.841 522.609C198.533 526.4 202.488 528.349 208.99 529.974C212.743 530.895 216.698 530.949 274.676 530.949H336.34L340.697 529.703C349.411 527.212 356.784 522.013 360.805 515.515C365.497 508.041 365.229 497.86 360.269 490.387C357.655 486.434 351.153 481.289 346.26 479.285C337.949 475.928 339.558 475.982 274.005 476.036C239.621 476.09 212.944 476.307 211 476.632Z" fill="#008060"/>
</svg>
