<svg width="546" height="531" viewBox="0 0 546 531" fill="none" xmlns="http://www.w3.org/2000/svg">
<path d="M171.762 2.84754C135.741 10.6455 115.266 43.255 125.125 77.6368C130.812 97.4861 158.491 123.361 180.483 129.741C230.154 143.565 274.896 122.298 279.825 82.2447C283.616 48.5718 257.833 15.6078 219.537 4.97425C197.925 -1.05143 190.721 -1.40588 171.762 2.84754Z" fill="#004C3F"/>
<path d="M362.104 85.7888C355.659 88.27 345.8 95.7134 340.113 101.739C305.609 140.374 340.871 193.897 401.159 194.251C426.184 194.251 442.867 187.871 456.138 173.338C480.784 145.691 468.65 103.511 430.734 87.5611C412.534 79.7631 378.788 79.0542 362.104 85.7888Z" fill="#004C3F"/>
<path d="M73.9378 110.955C58.0128 125.487 61.0462 140.02 88.7253 183.263C102.375 204.175 116.404 223.67 120.196 226.86C123.988 230.05 142.188 241.393 160.767 252.381C186.929 267.622 195.65 271.167 199.821 267.977C203.613 265.141 208.163 265.85 217.642 270.458C230.154 276.838 230.534 276.838 243.046 267.622C254.421 259.47 256.696 259.115 263.142 263.723C273.379 270.458 277.929 270.103 283.617 261.596C287.788 255.216 285.892 253.09 261.625 238.557C247.217 229.696 235.084 221.189 235.084 219.417C235.084 217.644 228.638 212.328 221.054 208.074C213.471 203.466 209.3 199.213 211.575 198.504C217.263 196.732 217.642 163.059 212.334 149.944C209.3 142.501 206.267 140.728 197.925 141.792C188.067 142.855 187.688 143.919 185.792 164.831C183.896 186.807 183.896 186.807 175.934 180.782C171.384 177.591 158.113 159.869 146.359 142.146C134.225 124.069 121.334 107.764 117.542 105.638C104.271 98.9032 83.7962 101.384 73.9378 110.955Z" fill="#004C3F"/>
<path d="M18.9587 150.299C16.6837 155.261 15.167 178.655 15.167 202.403C15.167 250.254 19.717 263.015 35.2628 260.888C42.467 259.825 43.6045 257.343 44.3628 240.33C45.8795 214.455 53.0837 152.426 55.7378 146.046C57.2545 142.147 53.4628 141.083 40.192 141.083C24.6462 141.083 21.992 142.147 18.9587 150.299Z" fill="#008060"/>
<path d="M322.292 207.72C300.679 219.062 294.234 230.05 292.717 260.533L291.2 287.471L303.713 284.99C332.529 279.319 351.867 279.319 371.204 283.927C383.338 287.117 395.092 288.18 399.642 286.408C422.771 278.256 465.238 279.319 490.642 288.535C497.467 291.016 497.846 289.598 495.95 263.723C494.054 234.658 488.746 224.379 468.65 210.555C459.171 203.821 451.967 203.112 396.988 202.049C342.767 201.34 334.046 201.694 322.292 207.72Z" fill="#004C3F"/>
<path d="M0 307.675V321.854H273H546V307.675V293.497H273H0V307.675Z" fill="#008060"/>
<path d="M92.896 337.804C84.5543 345.247 83.4168 349.501 83.4168 371.477V396.288H45.5002H7.5835V408.694V421.1H45.5002H83.4168V476.04V530.98H127.021H170.625V444.494C170.625 355.526 168.35 338.867 155.459 332.487C151.667 330.36 138.017 328.943 125.125 328.943C105.788 328.943 100.479 330.36 92.896 337.804Z" fill="#004C3F"/>
<path d="M191.858 336.386L182 343.475V437.405V530.98H223.708H265.417V438.823V346.311L255.937 337.804C243.425 325.753 207.404 325.044 191.858 336.386Z" fill="#004C3F"/>
<path d="M331.771 350.919C327.6 353.045 323.05 356.59 321.533 358.717C320.017 360.843 318.5 400.542 318.5 446.621V530.98H354.521H390.542V446.266V361.198L380.683 354.109C369.308 345.956 344.283 344.184 331.771 350.919Z" fill="#004C3F"/>
<path d="M417.842 350.21C413.292 351.982 407.604 357.653 405.708 362.615C403.433 367.932 401.917 407.631 401.917 451.583V530.98H439.833H477.75V446.266V361.198L467.892 354.109C457.275 346.311 433.767 344.538 417.842 350.21Z" fill="#004C3F"/>
</svg>
