<svg width="546" height="531" viewBox="0 0 546 531" fill="none" xmlns="http://www.w3.org/2000/svg">
<path d="M333.221 209.226L333.071 417.951L315.222 418.158L297.373 418.365L294.708 419.567C291.742 420.935 288.876 423.34 286.915 426.076C285.306 428.314 283.194 433.538 282.943 435.776L282.792 437.393L294.105 438.512C300.339 439.134 325.227 441.621 349.411 444.026C373.595 446.472 393.606 448.42 393.857 448.42C394.712 448.42 393.807 436.813 392.701 433.579C390.489 427.278 386.064 421.889 381.137 419.484L378.824 418.365L361.226 418.158L343.629 417.951L343.478 221.455L343.378 24.9588L338.4 12.7297L333.422 0.500492L333.221 209.226Z" fill="#004C3F"/>
<path d="M349.813 53.6038C349.713 63.7602 349.713 72.1341 349.813 72.1755C350.065 72.4242 365.148 70.2686 371.282 69.1079C398.885 63.8846 426.086 53.4379 450.471 38.7215C453.085 37.1462 455.448 35.6953 455.7 35.488C456.001 35.2807 433.477 35.1149 403.058 35.1149H349.914L349.813 53.6038Z" fill="#004C3F"/>
<path d="M322.512 109.029C314.97 115.247 306.624 120.553 282.541 134.399C258.759 148.121 252.072 152.349 243.625 159.065C239.05 162.713 232.916 168.475 233.368 168.807C233.871 169.18 241.363 171.17 247.094 172.455C255.943 174.486 263.636 175.854 291.49 180.414C311.702 183.73 322.311 185.637 326.434 186.674C327.238 186.881 327.289 184.767 327.289 146.255C327.289 123.87 327.138 105.63 326.937 105.671C326.685 105.712 324.724 107.205 322.512 109.029Z" fill="#008060"/>
<path d="M224.067 180.041C214.262 192.519 204.156 206.407 195.86 218.967C191.285 225.849 180.978 242.597 180.978 243.136C180.978 243.965 195.81 248.981 208.782 252.546C220.949 255.862 236.184 259.386 256.396 263.531C268.111 265.936 325.68 276.797 326.735 276.797C327.138 276.797 327.289 264.443 327.289 235.549C327.289 212.874 327.238 194.302 327.138 194.302C327.037 194.302 323.92 193.68 320.199 192.892C316.479 192.105 307.227 190.446 299.635 189.161C259.211 182.28 246.038 179.751 235.932 176.891C232.664 175.937 229.597 175.067 229.145 174.942C228.491 174.777 227.335 175.937 224.067 180.041Z" fill="#004C3F"/>
<path d="M349.813 228.047L349.914 250.184L353.081 249.562C354.791 249.23 361.126 248.028 367.159 246.909C380.081 244.546 389.684 242.514 390.237 242.058C391.343 241.146 381.84 232.234 368.416 221.497C362.534 216.812 355.997 211.382 353.936 209.433C351.874 207.485 350.064 205.91 349.914 205.91C349.763 205.91 349.713 215.859 349.813 228.047Z" fill="#008060"/>
<path d="M391.394 249.228C389.483 249.767 382.997 251.176 377.064 252.378C371.132 253.539 362.685 255.239 358.26 256.109C353.886 256.98 350.216 257.768 350.115 257.85C350.015 257.933 349.914 276.464 349.914 299.015C349.914 331.723 350.015 340.014 350.517 339.931C355.847 339.309 395.919 331.184 408.489 328.199C418.092 325.919 435.79 320.986 436.544 320.364C437.751 319.369 425.03 294.082 414.421 276.63C407.081 264.566 395.969 248.109 395.165 248.233C395.014 248.274 393.355 248.73 391.394 249.228Z" fill="#004C3F"/>
<path d="M171.978 258.887C165.894 270.246 161.671 278.827 156.694 289.854C152.671 298.808 147.09 312.406 147.342 312.613C148.498 313.401 159.409 318.043 165.894 320.531C193.497 331.143 230 341.009 283.043 352.202C297.373 355.228 326.032 360.949 326.836 360.949C327.087 360.949 327.238 345.777 327.188 322.728L327.037 284.507L316.479 282.517C310.697 281.439 298.931 279.2 290.334 277.584C233.77 266.93 203.151 259.468 180.877 250.97L177.056 249.477L171.978 258.887Z" fill="#008060"/>
<path d="M144.627 319.371C144.275 319.827 139.146 334.668 137.286 340.638C133.565 352.452 128.94 370.07 126.376 382.424C125.32 387.689 123.158 399.172 123.158 399.752C123.158 399.835 169.112 399.918 225.223 399.918H327.288L327.188 384.289L327.037 368.661L322.512 367.749C320.048 367.252 311.3 365.51 303.155 363.894C230.05 349.219 182.285 335.953 149.202 321.029C146.839 319.952 144.727 319.205 144.627 319.371Z" fill="#004C3F"/>
<path d="M435.89 328.243C421.008 333.051 395.869 338.938 364.093 344.99C356.551 346.441 350.266 347.685 350.165 347.768C350.015 347.851 349.914 359.582 349.914 373.843L349.864 399.711L404.718 399.835L459.521 399.918V398.923C459.521 397.348 457.661 386.984 455.951 379.273C453.287 367.003 449.566 353.737 445.393 341.674C443.533 336.243 439.913 326.916 439.762 326.999C439.711 326.999 437.952 327.538 435.89 328.243Z" fill="#008060"/>
<path d="M9.57851 427.859C37.835 435.859 58.6001 444.109 65.9407 450.286C67.248 451.363 68.4547 452.607 68.6055 453.022C68.8569 453.561 69.4099 453.809 70.4658 453.809C71.3205 453.809 98.3201 455.219 130.498 456.918C162.677 458.618 215.318 461.437 247.496 463.137C408.991 471.676 435.588 473.086 478.627 475.366C504.168 476.734 525.235 477.729 525.386 477.521C525.587 477.356 526.341 474.703 527.095 471.635C528.956 464.339 531.972 455.302 534.185 450.451C536.145 446.223 537.905 443.819 542.782 438.595C544.542 436.73 546 435.113 546 434.989C546 434.906 544.14 435.569 541.877 436.481C535.341 439.093 529.71 442.285 527.397 444.731C524.732 447.508 520.559 454.514 518.347 459.945C517.341 462.39 516.336 464.173 515.933 464.173C515.38 464.173 423.371 457.167 390.639 454.638C384.707 454.182 375.103 453.436 369.271 452.98C363.489 452.524 317.182 449.001 266.451 445.104C215.72 441.207 169.313 437.683 163.38 437.227C157.448 436.771 147.844 436.025 142.012 435.569C88.0633 431.382 1.13172 424.791 0.0758726 424.791C-0.628027 424.791 3.64565 426.159 9.57851 427.859Z" fill="#008060"/>
<path d="M75.3931 465.416C75.3931 466.162 82.6835 478.35 86.6052 484.195C93.795 494.766 100.432 502.559 106.666 507.575C114.51 513.877 131.604 521.297 153.928 528.054L162.073 530.5H314.92H467.767L474.403 526.355C491.599 515.618 508.844 502.601 515.682 495.263C519.604 491.035 523.978 484.029 523.174 483.366C523.023 483.241 514.375 482.827 503.917 482.371C493.459 481.956 480.286 481.417 474.604 481.169C468.923 480.961 422.466 479.096 371.282 477.023C320.149 474.951 273.641 473.085 267.96 472.878C262.278 472.629 253.228 472.256 247.848 472.049C242.469 471.841 203.1 470.266 160.364 468.566C117.627 466.867 81.0243 465.374 79.0634 465.25C76.7506 465.084 75.3931 465.167 75.3931 465.416Z" fill="#004C3F"/>
</svg>
