<svg width="1280" height="806" viewBox="0 0 1280 806" fill="none" xmlns="http://www.w3.org/2000/svg">
<path d="M684.484 0.824209C680.684 1.32421 670.984 2.12421 662.984 2.82421C625.384 5.82421 587.584 13.4242 551.484 25.3242C527.784 33.1242 513.884 38.8242 490.484 50.3242C436.484 76.8242 393.684 108.024 346.384 155.324C320.984 180.724 305.684 198.124 279.184 231.824C245.284 274.924 224.184 293.224 198.684 301.624C193.684 303.324 180.684 306.524 169.984 308.824C136.284 316.124 116.284 322.824 93.4841 334.624C38.4841 363.224 10.6841 409.424 3.58406 484.324C-0.715944 529.624 -1.01594 543.224 1.98406 560.624C7.18406 591.024 16.8841 610.024 37.3841 630.324C49.5841 642.524 59.2841 649.624 73.7841 656.924L83.2841 661.824H101.284H119.284L118.584 656.324C115.684 631.324 115.984 611.524 119.584 590.324C130.884 523.024 174.284 464.524 235.584 433.924C326.384 388.624 435.384 412.124 499.684 490.924C533.384 532.224 551.484 589.224 547.084 640.224C546.484 648.024 545.684 656.124 545.284 658.124L544.684 661.824H668.284C736.284 661.824 792.084 661.524 792.284 661.124C792.484 660.624 792.084 655.624 791.384 649.824C790.684 644.024 790.084 633.524 789.984 626.524C789.784 529.124 856.084 442.924 950.184 418.424C970.684 413.024 983.584 411.424 1005.48 411.424C1040.68 411.424 1068.18 417.624 1099.48 432.724C1155.28 459.724 1196.78 509.424 1213.28 568.824C1218.68 588.024 1220.28 600.624 1220.38 622.324C1220.48 633.324 1220.18 645.624 1219.68 649.624L1218.98 656.924L1223.58 653.124C1230.48 647.424 1241.28 634.624 1249.08 623.024C1264.28 600.324 1273.18 575.724 1277.68 543.824C1280.68 522.324 1279.88 502.324 1274.88 477.424C1266.78 437.224 1245.58 403.124 1215.08 381.124C1214.88 381.024 1214.58 376.424 1214.38 371.124C1213.98 354.224 1209.58 333.024 1199.98 301.324C1187.78 261.224 1175.38 235.424 1150.28 198.524C1128.88 166.924 1100.48 131.924 1073.98 104.524C1063.78 93.9242 1059.08 89.9242 1048.38 82.9242C1006.88 55.4242 944.384 31.8242 875.984 17.9242C840.184 10.6242 806.884 6.22421 767.484 3.42421C755.384 2.52421 739.884 1.42421 732.984 0.824209C718.784 -0.275791 694.884 -0.275791 684.484 0.824209ZM690.484 83.2242C711.484 89.1242 728.884 103.524 737.984 122.324C745.184 137.124 745.284 138.024 745.684 180.324C746.184 221.724 744.984 253.024 742.484 265.424C739.484 280.024 732.484 291.324 723.584 296.124L719.484 298.324L565.484 298.624C450.984 298.824 410.084 298.624 405.984 297.724C393.884 295.224 383.884 288.124 379.884 279.524C377.484 274.224 377.384 262.324 379.584 254.724C385.684 234.224 410.584 201.124 448.884 162.724C459.684 152.024 473.484 139.224 479.484 134.424C520.684 101.424 559.784 85.6242 609.984 81.4242C612.484 81.2242 630.284 81.2242 649.484 81.3242C678.884 81.4242 685.484 81.7242 690.484 83.2242ZM896.484 92.3242C911.684 95.7242 939.984 104.924 950.784 109.924C989.584 127.824 1026.58 166.424 1048.98 212.324C1063.58 242.324 1068.38 265.624 1062.88 280.224C1060.08 287.824 1052.98 294.124 1044.28 296.824C1037.98 298.724 1035.08 298.824 945.184 298.824C852.784 298.824 852.584 298.824 848.184 296.724C843.084 294.224 838.884 288.824 836.284 281.524C834.584 276.624 834.484 270.824 834.484 193.824V111.324L836.784 105.824C840.684 96.3242 844.584 93.0242 854.784 90.7242C865.684 88.2242 880.884 88.8242 896.484 92.3242Z" fill="#008060"/>
<path d="M313.984 448.924C242.184 455.824 180.684 507.224 160.384 577.424C155.284 594.824 153.784 608.424 154.184 630.324C154.684 652.924 156.684 664.724 162.684 682.724C172.184 711.224 186.484 733.524 209.384 755.524C237.284 782.424 269.384 797.624 311.384 803.724C328.784 806.324 335.184 806.324 352.584 803.724C388.084 798.524 413.184 788.524 439.184 769.124C473.484 743.624 498.184 704.924 506.984 662.824C513.284 632.324 511.384 599.724 501.484 570.024C474.984 490.824 397.684 440.824 313.984 448.924ZM349.884 542.824C369.984 546.924 389.684 559.724 401.484 576.324C425.584 610.224 422.784 654.924 394.584 684.524C377.984 702.024 359.784 710.524 336.584 711.624C316.584 712.424 300.584 708.124 284.884 697.724C240.484 667.924 233.384 606.624 269.884 567.524C289.784 546.224 320.484 536.724 349.884 542.824Z" fill="#004C3F"/>
<path d="M987.084 448.924C965.684 451.324 947.284 456.624 927.984 465.924C847.084 504.924 807.884 597.324 836.084 682.824C854.984 740.324 904.584 785.824 963.484 799.824C974.284 802.424 998.084 805.824 1005.38 805.824C1013.48 805.824 1038.38 802.124 1049.48 799.324C1120.08 781.424 1172.88 722.124 1182.48 650.124C1195.28 554.324 1129.68 466.124 1033.98 450.324C1022.08 448.424 998.184 447.624 987.084 448.924ZM1018.98 541.924C1053.98 547.524 1082.48 574.924 1089.48 609.724C1091.78 620.924 1091.08 639.124 1087.98 649.824C1081.28 673.224 1064.48 692.924 1042.48 703.424C1028.38 710.124 1022.88 711.324 1005.48 711.324C987.984 711.324 982.384 710.024 968.384 703.324C950.584 694.724 937.084 681.224 928.484 663.524C921.784 649.624 920.584 643.824 920.484 626.824C920.484 611.524 921.484 605.824 926.384 593.624C937.084 567.324 962.884 546.624 991.184 541.924C998.684 540.724 1011.38 540.624 1018.98 541.924Z" fill="#004C3F"/>
</svg>
