<svg width="546" height="475" viewBox="0 0 546 475" fill="none" xmlns="http://www.w3.org/2000/svg">
<path d="M266.662 0.46717C267.211 0.654173 268.065 0.654173 268.492 0.46717C268.858 0.186665 268.431 -0.00033759 267.394 -0.00033759C266.418 -0.00033759 266.052 0.186665 266.662 0.46717Z" fill="#004C3F"/>
<path d="M260.38 1.68363C259.16 2.24464 259.099 2.43164 260.075 2.43164C260.746 2.43164 261.965 2.05763 262.819 1.68363C264.039 1.12262 264.1 0.935617 263.124 0.935617C262.453 0.935617 261.233 1.30962 260.38 1.68363Z" fill="#004C3F"/>
<path d="M272.273 1.68363C273.31 2.05763 274.652 2.43164 275.323 2.43164C276.299 2.43164 276.238 2.24464 275.018 1.68363C274.164 1.30962 272.822 0.935617 271.968 0.935617C270.626 0.935617 270.626 1.02912 272.273 1.68363Z" fill="#004C3F"/>
<path d="M254.524 5.04807C249.828 8.88163 246.656 13.2762 242.692 21.6913C239.337 28.8909 235.373 34.4075 233.726 34.4075C233.36 34.4075 232.75 35.062 232.323 35.81C231.713 36.9321 231.774 37.6801 232.567 39.5501C233.909 42.7292 234.763 42.5422 237.263 38.4281C238.361 36.4646 238.727 35.7165 237.995 36.6516C236.958 37.9606 236.592 38.0541 236.592 37.2126C236.592 36.1841 236.409 36.1841 235.86 37.0256C234.824 38.6151 233.543 38.4281 233.543 36.7451C233.543 35.9971 233.848 35.3425 234.275 35.3425C235.982 35.3425 239.398 30.4805 243.363 22.5328C247.998 13.1827 251.048 8.88163 255.805 5.14157C257.513 3.83255 258.55 2.71053 258.184 2.61703C257.818 2.61703 256.171 3.73905 254.524 5.04807ZM235.373 40.0176C234.885 40.4851 234.275 40.5786 233.909 40.2981C233.604 39.9241 233.848 39.3631 234.519 39.0826C235.982 38.2411 236.592 38.8956 235.373 40.0176Z" fill="#004C3F"/>
<path d="M280.202 5.23641C292.584 14.306 299.598 35.9984 296.731 56.7557C295.755 63.9553 293.498 71.7159 291.303 75.269C290.632 76.4845 290.205 77.7001 290.449 77.9806C290.937 78.7286 286.667 88.1722 285.813 88.1722C285.386 88.1722 285.143 89.0137 285.264 89.9487C285.386 90.9773 285.204 91.3513 284.777 90.9773C284.411 90.6968 284.228 90.6967 284.289 91.1642C284.533 92.5668 282.886 96.2133 282.215 95.5588C281.788 95.1848 281.727 95.2783 281.971 96.0263C282.215 96.5873 281.849 98.1769 281.178 99.4859C280.446 100.888 279.897 101.636 279.897 101.169C279.897 100.795 279.531 100.982 279.165 101.543C278.738 102.197 278.372 103.413 278.372 104.348C278.372 105.189 278.006 105.844 277.579 105.657C277.092 105.563 276.909 105.844 277.152 106.405C277.64 107.621 275.323 112.202 274.713 111.267C274.408 110.893 274.408 111.08 274.652 111.735C274.835 112.296 274.591 113.231 274.042 113.698C272.761 114.82 271.907 123.329 272.273 131.65C272.944 146.798 273.188 187.751 272.578 187.751C272.273 187.751 271.968 187.658 271.968 187.471C271.968 187.377 271.785 171.482 271.541 152.221C271.175 118.186 271.236 117.064 272.395 113.418C273.127 111.361 277.335 101.917 281.788 92.3798C292.035 70.6874 292.828 68.8174 294.413 62.2723C297.097 51.2391 296.609 37.7749 293.072 27.2092C291.242 21.5057 288.619 16.6436 287.643 16.9241C287.216 17.0176 286.972 16.6436 287.033 16.0826C287.094 15.5216 286.423 14.0255 285.508 12.81C284.655 11.5945 284.289 11.314 284.716 12.1555C285.813 14.306 285.325 14.3061 282.703 11.875C281.483 10.753 280.507 10.192 280.507 10.4725C280.507 10.753 281.361 11.688 282.337 12.436C285.325 14.7736 290.205 23.1887 292.157 29.3598C295.938 41.141 295.938 55.0727 292.096 66.5734C291.059 69.7524 285.996 81.2531 280.812 92.1928C275.689 103.132 271.114 113.605 270.687 115.568C270.138 118.186 270.016 127.349 270.382 153.343C270.687 182.796 270.626 187.751 269.894 187.751C269.284 187.751 268.858 189.528 268.492 193.548L268.004 199.439L262.514 200.093C250.743 201.589 235.19 207.667 225.858 214.493C220.43 218.42 215.367 225.806 213.11 233.193C205.059 259.186 202.864 264.516 195.057 276.391C189.75 284.525 183.285 291.444 176.637 296.213C172.124 299.486 142.969 315.942 113.083 332.118L101.494 338.476L98.8716 345.395C95.822 353.623 96.2489 353.249 79.232 362.88C72.3399 366.807 61.1173 373.165 54.2861 376.998C47.455 380.925 41.4167 384.104 40.8678 384.104C39.648 384.104 38.3671 382.328 38.3671 380.645C38.3671 378.868 41.3557 376.905 60.3244 366.246C93.1383 347.732 92.0405 348.387 92.0405 346.61C92.0405 344.366 90.8816 343.899 88.5029 345.395C87.405 346.049 73.9257 353.716 58.6166 362.225C43.3075 370.827 29.4012 378.868 27.6934 380.177C16.1049 388.966 7.07799 405.236 2.50356 425.526C0.612794 433.941 0.307832 436.465 0.0638619 446.657C-0.180108 457.597 0.246839 463.768 1.83264 471.715C2.44257 474.707 2.62554 474.801 5.67517 474.801C8.23685 474.801 9.27372 474.333 10.4326 472.65C13.4822 468.349 14.2141 465.638 14.0921 459.28C13.7872 444.226 17.9346 427.863 24.7658 416.736C29.8892 408.415 33.6707 405.049 44.1614 399.252C48.8578 396.634 60.3854 390.275 69.7782 385.039C79.1711 379.803 89.9667 373.913 93.6873 371.856C97.4688 369.892 104.239 366.152 108.63 363.628C113.083 361.103 127.294 353.155 140.224 345.956C153.155 338.756 169.745 329.406 177.125 325.198C238.3 290.416 241.655 288.733 256.72 285.367C265.381 283.497 286.362 283.964 294.535 286.302C307.954 290.135 306.856 289.574 377.18 328.471C389.623 335.297 406.456 344.553 414.69 349.041C422.924 353.529 433.903 359.42 439.087 362.319C456.348 371.762 467.266 377.653 483.917 386.442C505.691 398.036 510.266 400.654 513.254 403.272C519.902 409.256 526.856 422.533 529.417 434.315C530.332 438.616 530.881 444.039 531.186 451.145C531.491 459.654 531.796 462.178 532.772 464.235C534.846 468.443 537.041 470.406 540.274 470.874C543.811 471.341 543.994 471.061 545.214 460.776C549.179 427.115 537.834 392.052 518.073 376.905C515.572 374.941 503.069 367.835 491.236 361.571C487.576 359.7 481.782 356.615 478.428 354.745C475.073 352.968 468.425 349.415 463.728 346.891C455.433 342.403 453.116 341.935 453.909 345.114C454.092 345.862 458.056 348.48 462.691 350.911C484.161 362.412 505.874 374.754 506.667 375.97C507.338 377.092 507.338 377.746 506.85 379.336C506.423 380.364 505.813 381.299 505.447 381.299C505.081 381.299 500.629 378.962 495.566 376.157C490.504 373.352 478.672 366.9 469.34 361.664C459.947 356.521 451.652 351.659 450.92 350.911C450.127 350.163 448.419 346.61 447.016 343.151L444.577 336.699L423.961 325.666C392.184 308.555 372.24 297.428 367.97 294.343C362.054 289.948 355.589 282.936 350.77 275.643C343.024 263.861 339.304 255.446 334.424 238.71C330.765 226.18 326.495 218.7 320.152 214.212C310.881 207.574 294.84 201.402 283.923 200.187C280.873 199.906 278.006 199.252 277.64 198.691C277.152 198.223 276.848 195.792 276.848 193.174C276.848 189.434 276.604 188.406 275.689 188.032C274.652 187.658 274.53 186.162 274.164 173.446C273.432 145.302 273.493 118.28 274.347 115.755C275.079 113.698 280.446 102.197 290.693 80.6921C299.354 62.5528 300.879 44.133 295.145 26.3677C291.669 15.4281 284.411 5.70393 278.067 3.17939C277.213 2.89889 278.189 3.83388 280.202 5.23641ZM290.388 21.6927C290.998 23.4692 290.998 23.5627 290.022 22.3472C289.473 21.5992 288.68 20.1032 288.314 19.0746C287.704 17.2981 287.704 17.2046 288.68 18.4201C289.229 19.1681 290.022 20.6642 290.388 21.6927ZM286.606 203.74C293.194 204.862 301.123 207.387 307.527 210.285C312.772 212.623 321.433 218.981 323.019 221.599C323.751 222.814 322.897 222.347 320.457 220.196C314.846 215.147 302.708 209.257 292.279 206.545C272.761 201.402 252.146 204.582 232.323 215.802C226.529 219.074 223.845 221.318 220.735 225.526C219.149 227.676 219.271 227.302 221.344 223.843C224.516 218.513 229.639 214.586 238.727 210.285C254.341 202.992 269.894 200.841 286.606 203.74ZM276.238 275.643C276.238 276.11 274.713 276.578 272.883 276.578C271.053 276.578 269.528 276.11 269.528 275.643C269.528 275.082 271.053 274.708 272.883 274.708C274.713 274.708 276.238 275.082 276.238 275.643ZM173.465 303.693C173.282 304.161 172.733 304.628 172.367 304.628C171.941 304.628 172.002 304.254 172.55 303.693C173.709 302.571 173.953 302.571 173.465 303.693ZM167.061 307.433C166.573 307.901 165.902 308.368 165.536 308.368C165.231 308.368 165.353 307.901 165.841 307.433C166.329 306.966 167.061 306.498 167.366 306.498C167.732 306.498 167.549 306.966 167.061 307.433ZM160.962 310.612C160.962 310.799 160.535 311.267 159.986 311.547C159.498 311.828 159.254 311.734 159.437 311.173C159.803 310.238 160.962 309.864 160.962 310.612Z" fill="#008060"/>
<path d="M262.88 5.51659C259.16 6.63861 258.916 7.48012 262.575 6.63861C266.235 5.7036 269.59 5.7036 273.188 6.54511C274.713 6.82561 275.384 6.91911 274.774 6.63861C274.103 6.35811 273.92 5.8906 274.225 5.51659C275.201 4.67508 265.93 4.58158 262.88 5.51659Z" fill="#004C3F"/>
<path d="M278.128 6.7341C278.738 7.57561 282.337 10.1001 282.337 9.72614C282.337 9.16513 278.982 6.36009 278.311 6.36009C278.067 6.36009 278.006 6.54709 278.128 6.7341Z" fill="#004C3F"/>
<path d="M256.964 8.79056C255.866 10.0996 255.866 10.0996 257.33 9.07106C259.22 7.76204 259.525 7.29453 258.793 7.29453C258.428 7.29453 257.635 7.94904 256.964 8.79056Z" fill="#004C3F"/>
<path d="M277.458 8.69489C278.312 9.4429 279.287 10.0039 279.592 10.0039C279.958 10.0039 279.531 9.4429 278.677 8.69489C277.824 7.94687 276.909 7.38587 276.543 7.38587C276.238 7.38587 276.604 7.94687 277.458 8.69489Z" fill="#004C3F"/>
<path d="M250.316 15.7092C248.12 19.2622 246.839 19.4492 248.852 15.8962C250.255 13.4651 250.255 13.4651 248.303 16.0832C246.352 18.8882 245.742 20.1037 247.022 18.8882C247.449 18.5142 247.632 18.7947 247.449 19.5427C247.266 20.2907 246.839 20.8517 246.534 20.8517C245.803 20.8517 244.888 22.0673 244.766 23.0023C244.583 25.5268 243.18 28.7994 242.57 28.2383C242.204 27.8643 242.082 27.9578 242.265 28.5189C242.509 29.0799 242.082 30.7629 241.35 32.1654L240.008 34.877L241.411 33.0069C242.204 31.9784 243.668 29.2669 244.705 26.9293C245.681 24.5918 247.937 20.4777 249.645 17.7662C251.292 15.1481 252.573 12.9041 252.39 12.9041C252.207 12.9041 251.292 14.1196 250.316 15.7092Z" fill="#004C3F"/>
</svg>
