<svg width="725" height="531" viewBox="0 0 725 531" fill="none" xmlns="http://www.w3.org/2000/svg">
<path d="M62.7459 0.985601C31.8264 1.3759 11.1887 1.96136 9.78327 2.64439C3.71772 5.18136 2.5342 7.71832 1.27671 19.6226C0.167159 29.9656 -0.498572 339.183 0.463039 389.337C1.12877 423.098 1.20274 424.269 2.83008 427.684C5.78889 434.124 9.11754 436.173 17.772 437.051C21.9883 437.539 71.5483 438.222 128.061 438.613L230.658 439.296V461.055V482.912L229.031 483.302C228.069 483.595 222.151 483.985 215.864 484.376C159.721 487.205 113.415 494.621 102.394 502.72C91.1504 510.819 112.158 518.917 160.017 524.87C190.27 528.577 221.708 530.139 269.492 530.139C322.899 530.139 359.144 527.992 393.392 522.918C448.722 514.624 455.379 502.622 409.666 493.645C390.507 489.937 353.078 485.839 324.23 484.376C318.165 484.083 312.025 483.595 310.768 483.302L308.327 482.814V460.957V439.003H325.34H342.353V399.973V360.942H188.865H35.3769V198.479V36.0153H269.492H503.608V75.0456V114.076H521.434H539.187L538.965 64.9953C538.743 17.8662 538.669 15.8171 537.19 11.1335C536.228 8.2062 534.897 5.76681 533.787 5.08378C530.015 2.54681 520.843 1.76621 485.855 0.888025C445.689 -0.087732 141.154 -0.087732 62.7459 0.985601ZM271.785 376.164C273.265 379.091 273.487 393.728 272.081 398.509C270.454 404.071 268.013 404.364 266.977 399.192C265.942 394.606 265.942 379.482 266.903 376.164C267.791 372.847 270.158 372.847 271.785 376.164ZM263.205 386.702C263.205 387.385 262.391 390.996 261.356 394.606C259.728 400.07 259.58 401.631 260.246 404.851C262.465 415.585 272.673 418.024 277.703 409.047C280.366 404.364 280.514 402.314 278.517 396.655C277.481 393.728 276.445 390.02 276.15 388.264C275.706 385.434 275.78 385.239 277.333 385.531C278.517 385.727 279.848 387.483 281.401 390.996C285.692 400.461 285.322 407.193 280.218 414.902C276.667 420.171 273.413 421.83 267.865 421.244C263.131 420.659 260.764 418.707 257.509 412.267C255.512 408.462 255.068 406.608 255.068 402.51C255.068 397.143 256.843 391.093 259.432 387.483C261.208 385.044 263.205 384.653 263.205 386.702Z" fill="#004C3F"/>
<path d="M362.103 134.372L357.886 140.031V285.809V431.587L362.103 437.247L366.319 442.906H409.074H451.828V428.758V414.609H428.898H405.967V284.736V154.765L541.554 155.448C616.042 155.936 677.141 156.326 677.141 156.326C677.215 156.424 677.437 214.579 677.585 285.517L677.881 414.609H654.728H631.576V428.758V442.906H673.96L716.271 442.809L720.118 438.223L723.964 433.637L724.482 286.98L725 140.324L720.636 134.469L716.345 128.712H541.332H366.319L362.103 134.372ZM709.244 270.88C713.46 274.686 715.828 280.15 715.901 285.809C715.975 299.763 701.847 307.764 694.154 298.201C687.793 290.2 689.346 274.978 697.039 270.588C700.294 268.734 707.025 268.831 709.244 270.88Z" fill="#008060"/>
<path d="M470.987 215.75C469.804 217.506 468.62 220.433 468.324 222.385C467.954 224.239 467.732 292.347 467.732 373.627C467.732 503.696 467.88 521.845 468.842 524.382C471.135 530.431 469.212 530.236 540.963 530.139C576.764 530.139 607.314 529.846 608.867 529.358C612.714 528.382 613.675 525.845 614.711 514.039C615.747 502.037 616.042 241.217 615.081 229.02C614.563 223.165 613.971 220.531 612.196 217.018L609.977 212.627H541.555H473.206L470.987 215.75ZM555.609 233.021C557.532 233.996 561.083 240.632 560.195 241.705C559.899 242.095 551.762 242.388 542.072 242.388C526.982 242.388 524.172 242.193 523.21 240.827C522.174 239.461 522.174 239.07 523.654 236.631C524.541 235.167 525.947 233.508 526.835 233.118C528.98 231.947 553.39 231.947 555.609 233.021ZM602.728 366.309V471.203H541.333H479.937V366.309V261.415H541.333H602.728V366.309ZM549.1 491.694C553.982 497.939 554.056 506.428 549.321 512.868C542.146 522.723 530.237 516.088 530.237 502.232C530.237 492.865 534.823 487.4 542.294 488.084C545.919 488.376 546.88 488.864 549.1 491.694Z" fill="#004C3F"/>
</svg>
