<svg width="846" height="230" viewBox="0 0 846 230" fill="none" xmlns="http://www.w3.org/2000/svg">
<path d="M103.372 0.825119C64.1717 4.52512 29.6717 28.2251 11.8717 63.8251C2.47169 82.6251 -0.828313 98.6251 0.171687 120.825C1.57169 149.925 12.4717 174.425 33.2717 195.425C85.5717 248.125 173.672 237.725 212.272 174.225C217.672 165.225 223.272 151.625 225.972 140.825C227.772 133.125 228.272 128.425 228.272 115.825C228.372 98.6251 227.272 91.0251 222.572 77.8251C213.972 53.1251 198.272 32.8251 176.972 19.0251C161.372 8.82512 144.372 2.92512 124.872 0.825119C114.572 -0.274881 114.972 -0.274881 103.372 0.825119ZM138.872 17.3251C167.772 25.2251 191.072 44.1251 204.272 70.5251C223.472 108.925 215.572 155.425 184.772 186.025C170.172 200.525 151.772 210.125 131.472 213.725C123.072 215.225 104.372 215.125 95.6717 213.425C49.8717 204.625 16.5717 166.125 14.1717 119.325C13.2717 100.025 16.9717 85.5251 26.1717 72.6251C38.1717 55.8251 55.9717 46.8251 76.8717 46.8251C88.1717 46.8251 95.9717 48.7251 106.072 54.0251C120.072 61.3251 132.272 76.1251 136.372 90.8251C137.172 93.8251 138.372 97.9251 138.872 99.9251C140.772 106.725 149.472 107.625 151.972 101.225C152.672 99.1251 152.472 96.5251 150.872 90.4251C145.372 68.1251 130.872 50.2251 110.372 40.3251C101.572 36.1251 91.1717 32.9251 85.2717 32.7251L82.3717 32.6251L85.7717 31.5251C90.7717 29.9251 106.672 32.0251 117.172 35.6251C128.972 39.6251 139.072 46.2251 147.972 55.5251C157.172 65.2251 162.972 75.4251 166.372 87.8251C167.872 93.0251 169.372 98.3251 169.972 99.6251C171.872 104.325 179.372 104.425 181.872 99.7251C185.072 93.8251 176.772 69.5251 166.572 55.3251C161.972 48.7251 151.072 38.0251 144.872 33.8251C129.972 23.7251 116.572 19.0251 95.5717 16.7251C94.8717 16.6251 95.9717 16.2251 97.8717 15.7251C104.172 14.3251 131.672 15.4251 138.872 17.3251Z" fill="#1081D1"/>
<path d="M26.7716 116.125C23.5716 118.625 22.8716 121.225 23.9716 127.925C30.8716 171.025 67.0716 202.125 110.072 202.025C126.572 201.925 136.572 199.525 151.072 192.125C171.872 181.425 188.572 160.825 194.872 137.825C197.372 128.325 197.472 124.425 194.872 121.825C190.272 117.225 183.472 119.825 182.272 126.725C178.072 152.325 159.672 174.325 135.172 183.125C127.472 185.925 114.872 188.225 110.372 187.625C107.772 187.325 108.072 187.125 112.672 186.025C136.972 180.425 157.572 161.525 165.372 137.425C168.972 126.325 168.972 122.125 165.372 119.125C163.272 117.325 161.872 116.825 159.972 117.325C155.972 118.325 154.872 119.925 152.872 127.825C147.372 149.425 131.072 166.025 110.372 171.325C102.772 173.225 88.9716 173.225 81.4716 171.325C60.1716 165.725 42.9716 147.325 38.4716 125.325C37.4716 120.525 36.3716 117.825 34.8716 116.625C32.2716 114.525 29.0716 114.325 26.7716 116.125Z" fill="#083991"/>
<path d="M372.872 114.325V172.825H381.872H390.872V148.325C390.872 134.925 391.372 121.725 391.972 119.025C393.272 112.925 398.472 106.425 403.472 104.825C408.872 103.025 417.872 103.925 421.772 106.825C428.372 111.425 428.872 114.025 428.872 145.025V172.825H438.372H447.872V142.525C447.872 117.525 447.572 111.225 446.272 106.725C442.572 94.4252 434.072 87.8252 420.772 87.0252C410.072 86.4252 404.172 88.5252 396.972 95.4252C393.972 98.4252 391.372 100.825 391.172 100.825C390.972 100.825 390.872 90.7252 390.872 78.3252V55.8252H381.872H372.872V114.325Z" fill="#1081D1"/>
<path d="M760.872 65.8252V74.8252H771.372H781.872V65.8252V56.8252H771.372H760.872V65.8252Z" fill="#083991"/>
<path d="M803.872 76.225V87.725L798.672 88.025L793.372 88.325V96.325V104.325L798.572 104.625L803.772 104.925L804.072 131.125C804.372 153.725 804.672 157.925 806.172 161.325C810.472 170.925 817.172 174.325 830.572 173.625C836.172 173.325 840.572 172.525 842.672 171.525C845.872 169.825 845.872 169.725 845.872 162.225C845.872 154.825 845.772 154.625 843.672 155.225C835.772 157.625 829.172 157.125 825.872 153.825C823.972 151.925 823.872 150.425 823.872 128.325V104.825H834.872H845.872V96.325V87.825H834.872H823.872V76.325V64.825H813.872H803.872V76.225Z" fill="#083991"/>
<path d="M315.372 88.1252C308.872 90.3252 305.472 92.4252 301.572 96.7252C297.172 101.625 295.472 107.425 296.172 115.125C297.172 125.925 303.372 131.325 321.872 137.325C336.572 142.125 340.872 145.025 340.872 150.325C340.872 156.925 333.172 160.325 322.172 158.625C316.372 157.725 304.772 153.025 301.772 150.225C300.372 148.925 299.772 149.425 296.072 155.025C291.172 162.425 291.372 162.725 301.172 167.725C309.472 171.825 317.772 173.825 326.872 173.825C346.172 173.825 358.172 164.125 358.272 148.425C358.372 137.325 352.572 130.525 338.672 125.325C334.872 123.925 328.672 121.625 324.672 120.125C313.172 115.925 310.172 111.125 315.272 105.125C317.572 102.425 318.172 102.325 326.072 102.325C333.372 102.325 335.172 102.725 341.672 105.725C345.672 107.625 349.072 108.925 349.272 108.725C349.472 108.525 351.072 105.725 352.872 102.525C356.872 95.4252 356.572 95.0252 345.572 90.7252C335.972 87.0252 322.172 85.9252 315.372 88.1252Z" fill="#1081D1"/>
<path d="M488.372 87.8252C480.872 89.0252 469.172 92.5252 468.372 93.8252C467.972 94.4252 468.672 97.8252 469.872 101.425C472.372 108.725 471.272 108.425 482.372 105.425C491.372 103.025 503.372 103.325 508.872 106.025C514.072 108.725 517.872 114.925 517.872 120.925V124.625L512.772 123.325C495.672 118.825 476.072 121.525 467.572 129.625C458.072 138.625 457.572 156.225 466.472 165.125C473.072 171.725 477.772 173.325 490.372 173.325C500.372 173.325 501.872 173.025 506.372 170.625C509.172 169.225 512.472 166.825 513.772 165.425C515.172 164.025 516.572 162.825 517.072 162.825C517.472 162.825 517.872 165.025 517.872 167.825V172.825H526.972H535.972L535.672 141.525L535.372 110.325L532.572 104.625C527.272 93.8252 517.472 88.2252 502.572 87.4252C498.072 87.1252 491.672 87.3252 488.372 87.8252ZM514.172 134.825L517.872 135.925V141.725C517.872 146.125 517.272 148.325 515.572 150.925C509.872 159.425 496.672 163.325 487.172 159.325C482.072 157.125 480.072 155.125 478.872 150.925C476.972 143.625 480.672 137.125 488.572 134.225C492.872 132.625 507.872 132.925 514.172 134.825Z" fill="#1081D1"/>
<path d="M590.672 88.3252C584.772 90.5252 580.172 94.5252 576.072 101.125L572.372 107.225L572.072 97.5252L571.772 87.8252H562.872H553.872V130.325V172.825H562.772H571.672L572.172 152.025C572.672 129.425 573.472 125.125 578.672 117.625C582.472 112.125 589.972 107.825 597.372 107.125L602.872 106.525V96.7252V86.8252L598.672 86.9252C596.272 86.9252 592.672 87.6252 590.672 88.3252Z" fill="#1081D1"/>
<path d="M650.572 88.2252C648.572 89.0252 645.372 90.7252 643.472 92.1252C640.572 94.4252 638.872 96.5252 633.172 105.425C632.172 107.025 631.972 105.525 631.972 97.5252L631.872 87.8252H622.872H613.872V130.325V172.825H622.772H631.672L632.072 151.525C632.472 132.425 632.772 129.725 634.872 124.425C638.872 114.025 648.772 106.825 659.072 106.825H661.872V96.8252V86.8252H658.172C656.072 86.9252 652.672 87.5252 650.572 88.2252Z" fill="#1081D1"/>
<path d="M693.371 88.5251C682.571 92.4251 675.271 99.4251 669.671 111.325C663.771 124.125 664.771 142.425 672.171 154.725C685.471 176.925 721.471 181.225 739.471 162.725L743.271 158.825L737.771 153.925L732.371 149.025L729.471 151.525C723.971 156.125 718.671 158.125 710.871 158.625C699.271 159.325 691.771 155.025 687.271 145.325C682.971 136.125 680.671 136.825 715.871 136.825H746.871V130.025C746.871 112.325 738.471 97.2251 725.171 90.6251C719.171 87.7251 717.471 87.3251 708.471 87.0251C700.671 86.8251 697.171 87.2251 693.371 88.5251ZM715.371 103.725C721.771 106.625 726.571 113.225 728.171 121.525L728.871 124.825H706.871C682.371 124.825 683.771 125.325 686.071 117.725C687.571 112.525 693.371 106.025 698.271 103.725C703.471 101.325 710.271 101.325 715.371 103.725Z" fill="#1081D1"/>
<path d="M761.872 130.325V172.825H771.372H780.872V130.325V87.8252H771.372H761.872V130.325Z" fill="#083991"/>
</svg>
