<svg width="546" height="531" viewBox="0 0 546 531" fill="none" xmlns="http://www.w3.org/2000/svg">
<path d="M214.498 270.41C214.498 267.649 216.737 265.41 219.498 265.41H277.755C280.516 265.41 282.755 267.649 282.755 270.41V317.321C282.755 320.082 280.516 322.321 277.755 322.321H219.498C216.737 322.321 214.498 320.082 214.498 317.321V270.41Z" fill="#004C3F"/>
<path d="M321.75 61.7402C321.748 58.9803 319.51 56.7441 316.75 56.7441H277.998C275.236 56.7441 272.998 58.9827 272.998 61.7441V94.0596C272.998 95.4536 273.58 96.7842 274.603 97.7306L313.409 133.615C316.612 136.577 321.807 134.303 321.804 129.94L321.75 61.7402Z" fill="#004C3F"/>
<path d="M38.9978 199.02H351.756C353.219 199.02 353.921 197.224 352.844 196.232V196.232L325.265 170.725C325.108 170.605 324.981 170.45 324.825 170.32L256.575 107.208C256.488 107.114 256.391 107.036 256.305 106.952C228.113 80.9268 202.218 57.0139 188.634 44.4444C186.718 42.671 183.769 42.6786 181.852 44.4511L17.6663 196.232V196.232C16.5734 197.247 17.2913 199.075 18.7826 199.075H38.7579C38.8445 199.069 38.9112 199.02 38.9978 199.02Z" fill="#004C3F"/>
<path d="M341.243 327.322C341.243 324.561 343.482 322.322 346.243 322.322H492.242C495.003 322.322 497.242 324.561 497.242 327.322V336.29C497.242 339.052 495.003 341.29 492.242 341.29H346.243C343.482 341.29 341.243 339.052 341.243 336.29V327.322Z" fill="#008060"/>
<path d="M458.241 474.069H346.243C343.482 474.069 341.243 476.307 341.243 479.069V488.037C341.243 490.798 343.482 493.037 346.243 493.037H492.242C495.003 493.037 497.242 490.798 497.242 488.037V365.254C497.242 362.492 495.003 360.254 492.242 360.254H346.243C343.482 360.254 341.243 362.492 341.243 365.254V374.222C341.243 376.983 343.482 379.222 346.243 379.222H458.241C463.63 379.222 467.989 383.469 467.989 388.708C467.989 393.943 463.63 398.19 458.241 398.19H346.243C343.482 398.19 341.243 400.429 341.243 403.19V412.161C341.243 414.923 343.482 417.161 346.243 417.161H458.241C463.63 417.161 467.989 421.408 467.989 426.647C467.989 431.886 463.63 436.129 458.241 436.129H346.243C343.482 436.129 341.243 438.368 341.243 441.129V450.101C341.243 452.862 343.482 455.101 346.243 455.101H458.241C463.63 455.101 467.989 459.348 467.989 464.583C467.989 469.822 463.63 474.069 458.241 474.069Z" fill="#008060"/>
<path d="M48.7466 270.41C48.7466 267.649 50.9852 265.41 53.7466 265.41H121.758C124.519 265.41 126.758 267.649 126.758 270.41V317.321C126.758 320.082 124.519 322.321 121.758 322.321H53.7466C50.9852 322.321 48.7466 320.082 48.7466 317.321V270.41Z" fill="#004C3F"/>
<path d="M545.993 517.005C545.991 514.245 543.753 512.008 540.993 512.008H4.99999C2.23857 512.008 0 514.246 0 517.008V525.976C0 528.737 2.23858 530.976 5 530.976H540.997C543.76 530.976 545.999 528.736 545.997 525.973L545.993 517.005Z" fill="#004C3F"/>
<path d="M34.1257 493.042H141.373C154.796 492.958 165.66 482.392 165.75 469.331C165.75 457.42 156.662 447.358 144.522 445.818C144.415 445.818 144.339 445.74 144.229 445.724C143.992 445.704 143.759 445.669 143.529 445.62C143.215 445.507 142.908 445.378 142.609 445.235C142.349 445.111 142.084 444.998 141.815 444.895C141.348 444.717 140.898 444.502 140.466 444.255C139.963 443.902 139.493 443.5 139.073 443.059C138.61 442.66 138.19 442.223 137.814 441.749C137.487 441.234 137.211 440.692 136.987 440.128C136.711 439.593 136.491 439.036 136.331 438.459C136.246 437.976 136.199 437.491 136.191 437.004C136.186 436.71 136.17 436.416 136.14 436.124C136.108 435.809 136.091 435.492 136.091 435.178C136.091 435.006 136.224 434.873 136.254 434.701C136.257 434.688 136.259 434.675 136.261 434.661C136.303 434.356 136.285 434.047 136.332 433.742C136.452 432.964 136.508 432.178 136.497 431.392C136.497 418.301 125.583 407.684 112.127 407.684C111.768 407.688 111.41 407.7 111.052 407.72C108.401 407.869 106.813 410.478 107.056 413.122C107.179 414.466 107.243 415.816 107.248 417.166C107.231 425.491 104.968 433.664 100.686 440.877C97.9967 445.416 92.0282 446.978 87.3627 444.359C82.6905 441.736 81.0875 435.933 83.7835 431.392C86.3796 427.077 87.7492 422.165 87.7492 417.166C87.7826 413.607 87.0661 410.083 85.6331 406.809C80.541 394.058 66.8343 386.651 53.0144 389.192C39.2044 391.727 29.2102 403.489 29.2502 417.166C29.2235 422.499 30.7731 427.725 33.7058 432.228C33.826 432.475 33.9342 432.729 34.0297 432.988C34.1714 433.372 34.3389 433.746 34.5277 434.109C34.5887 434.226 34.6468 434.345 34.7018 434.465C34.8241 434.731 34.8755 435.024 34.8755 435.317V435.317C34.9941 436.408 35.023 437.503 34.9598 438.592C34.9442 438.862 34.9028 439.13 34.826 439.388C34.6935 439.835 34.5252 440.271 34.3289 440.696C34.1323 441.273 33.879 441.824 33.5725 442.349C33.2292 442.806 32.8426 443.237 32.4161 443.626C31.9762 444.132 31.4796 444.589 30.9398 444.994C30.8098 445.082 30.7431 445.221 30.6065 445.309C29.793 445.796 28.9112 446.166 27.9835 446.409C27.9616 446.415 27.939 446.418 27.9163 446.418V446.418C27.8948 446.418 27.8732 446.42 27.8523 446.425C23.7257 447.446 19.9682 449.55 16.9832 452.506C12.3276 456.931 9.71494 463 9.7516 469.331C9.7516 482.425 20.6623 493.042 34.1257 493.042Z" fill="#004C3F"/>
<path d="M316.743 493.04C319.505 493.04 321.743 490.802 321.743 488.04V222.988C321.743 220.227 319.505 217.988 316.743 217.988H53.7466C50.9851 217.988 48.7466 220.227 48.7466 222.988V241.442C48.7466 244.203 50.9852 246.442 53.7466 246.442H126.744C137.518 246.442 146.246 254.936 146.246 265.41V322.321C146.246 332.795 137.518 341.289 126.744 341.289H53.7466C50.9852 341.289 48.7466 343.528 48.7466 346.289V364.606C48.7466 367.757 51.6322 370.109 54.7749 369.877C56.0119 369.785 57.2526 369.739 58.4942 369.739C73.4575 369.707 87.5098 376.431 96.6127 387.805C97.9981 389.536 100.276 390.323 102.437 389.829C105.609 389.105 108.86 388.727 112.124 388.711C134.206 388.766 152.59 404.754 155.434 425.714C155.709 427.74 157.035 429.49 158.916 430.29C174.771 437.029 185.2 452.293 185.247 469.329C185.265 474.591 184.27 479.781 182.343 484.639C180.855 488.39 183.355 493.04 187.39 493.04H189.994C192.756 493.04 194.994 490.802 194.994 488.04V388.711C194.994 372.998 208.091 360.257 224.244 360.257H272.995C280.75 360.257 288.188 363.256 293.677 368.589C299.162 373.925 302.245 381.164 302.245 388.711V488.04C302.245 490.802 304.483 493.04 307.245 493.04H316.743ZM282.746 341.289H214.496C203.725 341.289 194.994 332.795 194.994 322.321V265.41C194.994 254.936 203.725 246.442 214.496 246.442H282.746C293.514 246.442 302.245 254.936 302.245 265.41V322.321C302.245 332.795 293.514 341.289 282.746 341.289Z" fill="#008060"/>
</svg>
