<svg width="200" height="201" viewBox="0 0 200 201" fill="none" xmlns="http://www.w3.org/2000/svg">
<path d="M97.7367 0.125818C83.3491 0.439158 68.7887 4.1236 55.0708 10.9198C43.5564 16.614 33.5867 24.1341 25.896 32.8969C17.6653 42.2971 11.6272 52.1186 7.16623 63.3665C4.15262 70.9515 2.08954 78.6337 0.966181 86.3808C-0.243586 94.7437 -0.319196 103.744 0.750151 112.312C2.84564 129.146 9.93141 146.704 20.1928 160.502C25.4639 167.601 30.7891 172.992 38.1665 178.73C52.0464 189.491 69.0047 196.72 86.1791 199.183C91.407 199.929 93.913 200.102 100.005 200.102C105.157 200.102 106.086 200.058 110.05 199.659C122.721 198.394 136.255 194.137 148.234 187.665C157.274 182.792 166.067 176.126 172.094 169.589C182.885 157.887 190.219 145.472 195.09 130.627C201.474 111.178 201.636 90.6811 195.555 71.0919C193.686 65.052 192.012 61.0434 188.858 54.9927C183.036 43.8097 175.486 33.5019 168.53 27.2027C157.112 16.8733 144.896 9.74211 130.573 5.04201C119.934 1.54125 108.776 -0.122693 97.7367 0.125818ZM146.289 60.7625C146.592 60.9138 147.164 61.3568 147.564 61.7566C148.806 62.9883 149.217 64.2417 149.119 66.4675C149.076 67.6344 148.385 70.9407 140.791 106.694C136.244 128.12 132.388 146.142 132.237 146.747C131.092 151.372 128.769 152.82 124.848 151.329C123.487 150.81 124.719 151.696 102.759 135.391C100.448 133.673 98.5036 132.269 98.428 132.258C98.3632 132.247 95.6412 134.819 92.39 137.974C89.1387 141.118 86.1035 143.981 85.6498 144.316C84.2672 145.364 82.539 146.131 81.5669 146.131C81.3724 146.131 81.2104 146.077 81.2104 146.023C81.2104 145.84 83.1547 120.924 83.1871 120.718C83.1979 120.621 88.1234 116.051 94.1182 110.562C100.124 105.073 110.634 95.4676 117.482 89.2116C124.319 82.9556 130.001 77.6937 130.087 77.5208C130.476 76.7645 130.152 76.4079 129.029 76.3539C128.305 76.3215 128.197 76.3431 127.441 76.732C126.998 76.9698 119.458 81.6807 110.698 87.2019C80.0979 106.489 69.426 113.198 69.2424 113.252C69.1343 113.274 63.4636 111.588 56.6262 109.503C49.7997 107.418 43.8157 105.592 43.3404 105.44C42.2171 105.106 41.2341 104.468 40.8561 103.809C40.0892 102.512 40.8453 100.794 42.7139 99.5626C43.7941 98.8495 44.5178 98.5578 53.3966 95.1327C57.7388 93.4579 64.0252 91.0268 67.3845 89.7303C70.7438 88.4337 78.3048 85.5164 84.1808 83.2474C90.0676 80.9783 102.122 76.3215 110.969 72.9071C119.826 69.4928 129.806 65.6355 133.166 64.3389C136.525 63.0423 139.852 61.7566 140.565 61.4756C142.833 60.6004 143.449 60.4492 144.669 60.4816C145.555 60.5032 145.847 60.5464 146.289 60.7625Z" fill="#2CA5E0"/>
</svg>
